<svg width="375" height="816" viewBox="0 0 375 816" fill="none" xmlns="http://www.w3.org/2000/svg">
<g clip-path="url(#clip0_423_151)">
<rect width="375" height="816" fill="#EBFBFF"/>
<path fill-rule="evenodd" clip-rule="evenodd" d="M-40 398.685C-25.55 331.558 3.71 306.049 47.777 322.156C113.877 346.318 113.877 345.438 159.096 304.671C172.659 292.444 164.22 234.616 143.887 232.722C123.554 230.825 139.081 189.174 174.09 181.002C209.099 172.831 164.69 115.129 138.043 98.3598C110.369 80.9444 145.917 35.1006 148.663 17.592C153.119 -10.8301 90.232 -10.8301 -40 17.592V398.685Z" fill="url(#paint0_linear_423_151)"/>
<path fill-rule="evenodd" clip-rule="evenodd" d="M375 664.475C348.812 663.718 329.501 648.836 317.069 619.827C298.42 576.315 298.574 482.217 258.814 487.361C219.054 492.505 176.566 471.459 191.651 412.186C206.736 352.912 241.971 360.259 250.393 263.645C258.814 167.029 189.863 283.701 178.475 219.458C174.028 194.37 184.584 190.989 168.217 162.764C162.784 153.395 160.157 139.817 161.24 134.54C164.606 45.6243 166.931 0.777829 168.217 0.000331252C174.343 -3.70086 182.633 -2.48369 195.767 -2.48369C224.043 -2.48369 283.787 -1.65527 375 0.000331252V664.475Z" fill="url(#paint1_linear_423_151)"/>
<path d="M53.4206 801.229L43.8931 789.395C43.3998 788.783 42.6002 788.783 42.1069 789.395L32.5794 801.229C32.0861 801.841 32.0861 802.834 32.5794 803.447L42.1069 815.28C42.6002 815.893 43.3998 815.893 43.8931 815.28L53.4206 803.447C53.9139 802.834 53.9139 801.841 53.4206 801.229Z" fill="url(#paint2_linear_423_151)"/>
<path opacity="0.543" fill-rule="evenodd" clip-rule="evenodd" d="M60.7288 567.757L59.6124 590.868C59.5894 591.346 59.4682 591.81 59.2604 592.214C59.0527 592.618 58.7652 592.949 58.4253 593.176C58.0854 593.403 57.7044 593.519 57.3184 593.512C56.9325 593.505 56.5544 593.375 56.2202 593.135L41.7801 582.781C41.4458 582.541 41.1664 582.199 40.9684 581.788C40.7704 581.376 40.6604 580.908 40.6489 580.429C40.6373 579.95 40.7246 579.475 40.9024 579.05C41.0802 578.624 41.3427 578.262 41.6649 577.998L57.2214 565.242C57.5723 564.954 57.9808 564.793 58.401 564.778C58.8213 564.762 59.2368 564.892 59.6009 565.153C59.965 565.414 60.2634 565.796 60.4626 566.256C60.6618 566.716 60.754 567.236 60.7288 567.757V567.757Z" stroke="url(#paint3_linear_423_151)" stroke-width="4.528"/>
<path d="M233.677 553.084L225.899 543.423C225.508 542.938 224.875 542.938 224.484 543.423L216.706 553.084C216.316 553.569 216.316 554.355 216.706 554.84L224.484 564.501C224.875 564.986 225.508 564.986 225.899 564.501L233.677 554.84C234.067 554.355 234.067 553.569 233.677 553.084Z" fill="url(#paint4_linear_423_151)"/>
</g>
<defs>
<linearGradient id="paint0_linear_423_151" x1="-85.1049" y1="-30.9597" x2="334.611" y2="152.934" gradientUnits="userSpaceOnUse">
<stop stop-color="white" stop-opacity="0"/>
<stop offset="1" stop-color="#C9F0FF"/>
</linearGradient>
<linearGradient id="paint1_linear_423_151" x1="417.663" y1="-2.67532" x2="52.0419" y2="80.0399" gradientUnits="userSpaceOnUse">
<stop stop-color="white" stop-opacity="0"/>
<stop offset="1" stop-color="#C9F0FF"/>
</linearGradient>
<linearGradient id="paint2_linear_423_151" x1="43.8966" y1="825.682" x2="42.5152" y2="802.367" gradientUnits="userSpaceOnUse">
<stop stop-color="white" stop-opacity="0"/>
<stop offset="1" stop-color="#C9F0FF"/>
</linearGradient>
<linearGradient id="paint3_linear_423_151" x1="16.8948" y1="579.597" x2="57.229" y2="578.983" gradientUnits="userSpaceOnUse">
<stop stop-color="white" stop-opacity="0"/>
<stop offset="1" stop-color="#C9F0FF"/>
</linearGradient>
<linearGradient id="paint4_linear_423_151" x1="231.043" y1="498.561" x2="227.175" y2="562.757" gradientUnits="userSpaceOnUse">
<stop stop-color="white" stop-opacity="0"/>
<stop offset="1" stop-color="#DEF5FE"/>
</linearGradient>
<clipPath id="clip0_423_151">
<rect width="375" height="816" fill="white"/>
</clipPath>
</defs>
</svg>
