<svg width="148" height="23" viewBox="0 0 148 23" fill="none" xmlns="http://www.w3.org/2000/svg">
<g clip-path="url(#clip0_233_2)">
<path d="M17.8396 1.16755C13.0885 1.16533 8.13123 2.12855 3.12787 3.37796C2.49253 3.4931 1.87257 3.86731 1.54476 4.3301C1.24339 4.76631 1.13391 5.20419 1.03981 5.6631C0.553926 8.11431 0.61297 10.5212 0.713837 13.1883C0.735978 13.7989 0.836845 14.5225 1.15359 14.9625C1.48448 15.4071 2.05155 15.6894 2.72871 15.7818C3.59383 15.896 4.46166 15.9929 5.33156 16.0725L5.13967 20.8874C5.11015 21.2705 5.31803 21.5888 5.57635 21.772C5.8076 21.9303 6.06531 22.0006 6.32977 22.0184C6.85871 22.0543 7.47928 21.8506 7.78742 21.3225C9.13743 18.9842 9.98435 17.9518 11.6726 16.3985C16.0751 16.4959 19.9185 16.2756 24.2699 15.9861C25.8081 15.9501 26.8641 14.8181 27.1434 13.9141C27.978 11.5714 28.1078 8.67951 28.1963 5.7561C28.2338 4.59747 27.7873 3.45988 26.997 2.85871C26.2454 2.31012 25.3351 2.11138 24.5012 1.90767C22.1843 1.43547 19.8668 1.18194 17.8396 1.16755ZM24.1684 2.99987C25.0036 3.20413 25.7398 3.40065 26.2042 3.73999C26.9792 4.48122 26.9533 4.97446 26.9422 5.77437C26.8549 8.60976 26.7036 11.3616 25.9926 13.4469C25.6863 14.2246 25.1525 14.7782 24.1438 14.8618C19.7106 15.1568 15.8641 15.3849 11.4082 15.2709C11.3214 15.2684 11.235 15.2819 11.1543 15.3107C11.0736 15.3394 11.0002 15.3828 10.9389 15.4381C9.0667 17.1397 8.10909 18.3222 6.68219 20.7944C6.64898 20.8509 6.57702 20.8852 6.48845 20.8913C6.42879 20.8885 6.40481 20.847 6.40112 20.8094L6.59424 15.5881C6.60593 15.3063 6.34761 15.0373 6.0364 15.0068C4.99582 14.9174 3.95808 14.8029 2.92429 14.6636C2.47777 14.6022 2.31294 14.492 2.19055 14.3282C1.97775 13.8715 1.98267 13.5891 1.96606 13.1502C1.86642 10.5068 1.81722 8.1968 2.26804 5.89837C2.30987 5.55847 2.45133 5.21083 2.6014 4.92021C2.84987 4.57035 3.23058 4.51887 3.61252 4.42365C8.50579 3.20746 13.2933 2.29794 17.8003 2.29517C20.0095 2.36713 22.3294 2.56642 24.1684 2.99987V2.99987ZM7.26771 7.47826C6.59363 8.2051 6.66067 9.19212 7.1816 9.85308C7.45345 10.1991 7.87783 10.4775 8.39447 10.5406C9.06547 10.5904 9.49108 10.3458 9.95052 10.0645C10.7827 9.41354 10.8669 8.27762 10.2341 7.45722C9.91177 7.03928 9.39637 6.78851 8.86989 6.7708C8.14906 6.77744 7.65949 7.06696 7.26771 7.47771V7.47826ZM14.5596 6.88483C13.888 6.90421 13.3449 7.32271 13.0134 7.77442C12.6339 8.2909 12.4125 8.93747 12.7194 9.57131C13.3099 10.7908 15.35 10.7759 16.1637 9.53644C16.5388 8.96515 16.4429 8.31581 16.1637 7.84472C15.8857 7.37419 15.465 6.99056 14.853 6.90255C14.7561 6.8882 14.6578 6.88227 14.5596 6.88483V6.88483ZM20.4794 6.99942C20.2703 6.99499 20.055 7.01271 19.8533 7.06087C19.0464 7.25462 18.3594 8.00415 18.4633 8.96349C18.5162 9.44621 18.7628 9.91674 19.2075 10.2411C19.6522 10.565 20.298 10.71 20.9788 10.5843C21.7611 10.4404 22.2458 9.87301 22.4076 9.32497C22.5693 8.77694 22.5287 8.21838 22.1529 7.76556C21.9574 7.53155 21.705 7.34086 21.4151 7.20807C21.1251 7.07529 20.8053 7.00392 20.48 6.99942H20.4794ZM8.81515 7.89787C8.96584 7.89897 9.08454 7.94215 9.20693 8.10047C9.48063 8.45587 9.40436 8.99449 9.12821 9.21038C8.85329 9.42628 8.68169 9.4451 8.56114 9.43071C8.44059 9.41576 8.3182 9.34103 8.20872 9.20153C7.99961 8.93581 7.9381 8.50624 8.21303 8.19956C8.35941 8.02463 8.62818 7.91558 8.81577 7.89787H8.81515ZM14.6476 8.02131C14.671 8.02463 14.933 8.16137 15.0584 8.37338C15.1839 8.5854 15.2073 8.78247 15.088 8.96349C14.7331 9.50378 13.9784 9.35763 13.864 9.12237C13.821 9.03269 13.8536 8.67231 14.0608 8.39165C14.2669 8.10988 14.5264 8.00415 14.6476 8.02076V8.02131ZM21.1449 8.43538C21.183 8.48133 21.2759 8.78967 21.2039 9.03435C21.1313 9.27903 21.0133 9.43015 20.7242 9.48329C20.3539 9.55194 20.146 9.4833 19.9904 9.36871C19.8342 9.25522 19.7291 9.06313 19.7063 8.85776C19.6509 8.34847 19.8539 8.23056 20.1762 8.15306C20.5514 8.07003 20.9757 8.21506 21.1449 8.43538V8.43538Z" fill="white"/>
<path d="M36.0713 3.44657C36.0811 3.30264 36.1396 3.17311 36.2478 3.05852C36.3005 3.00234 36.3667 2.95769 36.4414 2.92796C36.5161 2.89823 36.5973 2.88419 36.6789 2.88691H40.8772C41.0187 2.88691 41.1644 2.94005 41.3151 3.04579C41.3857 3.09141 41.4431 3.15163 41.4825 3.22137C41.5219 3.29111 41.5421 3.36834 41.5415 3.44657V9.47662H48.5658V3.44657C48.5658 3.29379 48.6249 3.16259 48.7424 3.05243C48.8604 2.94171 49.013 2.88636 49.2018 2.88636H53.3435C53.5317 2.88636 53.6965 2.92898 53.838 3.01368C53.9794 3.09893 54.0502 3.23455 54.0502 3.42111V21.2184C54.0502 21.405 53.9887 21.545 53.8656 21.638C53.7439 21.7316 53.5833 21.7781 53.3859 21.7781H49.2018C49.0136 21.7781 48.8604 21.7316 48.7424 21.638C48.6249 21.545 48.5658 21.4055 48.5658 21.2184V13.9927H41.5415V21.2184C41.5415 21.3967 41.4775 21.534 41.3508 21.6319C41.2235 21.7294 41.0513 21.7781 40.8342 21.7781H36.6789C36.2835 21.7781 36.0811 21.6126 36.0713 21.2821V3.44657ZM74.742 21.5622C74.6196 21.6552 74.4898 21.7144 74.3533 21.7399C74.2257 21.7646 74.0957 21.7776 73.9652 21.7786H71.831C71.6612 21.7786 71.5149 21.751 71.3925 21.6956C71.2695 21.6402 71.1661 21.5661 71.0813 21.4731C70.9944 21.3765 70.9232 21.2693 70.8697 21.1548C70.8127 21.0351 70.7655 20.9119 70.7282 20.7861L70.2903 19.1575C70.1489 19.4204 69.944 19.7194 69.6753 20.0543C69.3845 20.4097 69.0395 20.7265 68.6506 20.9953C68.2361 21.2887 67.741 21.5345 67.1665 21.7338C66.5915 21.9331 65.9321 22.0327 65.1873 22.0327C64.1135 22.0327 63.138 21.8462 62.2616 21.4731C61.4035 21.1122 60.6401 20.5919 60.0216 19.9463C59.4047 19.302 58.9262 18.5491 58.5873 17.6877C58.2478 16.8275 58.0781 15.9091 58.0781 14.9343V6.60137C58.0781 6.2792 58.1562 6.03562 58.3118 5.87011C58.4668 5.70459 58.714 5.62211 59.0535 5.62211H62.3182C62.7241 5.62211 63.0015 5.683 63.1521 5.80645C63.3028 5.92934 63.3785 6.16904 63.3785 6.52498V14.8064C63.3785 15.1718 63.4707 15.5172 63.654 15.8438C63.8379 16.1704 64.0802 16.4583 64.3822 16.7085C64.6836 16.9587 65.0249 17.1563 65.4069 17.3002C65.7882 17.4442 66.1769 17.5161 66.573 17.5161C66.9119 17.5161 67.2631 17.4442 67.626 17.3002C67.9912 17.1545 68.3295 16.9592 68.6291 16.7212C68.9354 16.4799 69.1875 16.1953 69.3856 15.8687C69.5836 15.5421 69.682 15.1967 69.682 14.8324V6.56318C69.682 6.41925 69.7128 6.27532 69.7743 6.13084C69.8358 5.98691 69.9274 5.8762 70.0498 5.7998C70.1722 5.73227 70.2879 5.68577 70.3961 5.6603C70.5043 5.63484 70.6298 5.62155 70.7707 5.62155H73.9652C74.3699 5.62155 74.662 5.71123 74.841 5.88893C75.02 6.06718 75.1098 6.30466 75.1098 6.60137V20.837C75.1098 20.9976 75.0698 21.1465 74.9898 21.2821C74.9099 21.4177 74.7992 21.524 74.6577 21.5998L74.742 21.5622V21.5622ZM91.1519 19.8063C90.8973 20.0354 90.6168 20.2812 90.3111 20.5442C90.0048 20.8071 89.6678 21.0535 89.3006 21.2821C88.931 21.5122 88.5326 21.7022 88.1136 21.8484C87.6759 21.9991 87.2107 22.0745 86.742 22.0709C85.4609 22.0709 84.2806 21.855 83.2012 21.4221C82.1491 21.0066 81.2018 20.4028 80.417 19.6474C79.6396 18.8967 79.0319 18.0127 78.594 16.9947C78.1555 15.9772 77.9365 14.8834 77.9365 13.7126C77.9365 12.5334 78.1555 11.4374 78.594 10.4243C79.0319 9.4113 79.6396 8.52891 80.417 7.77827C81.2008 7.02361 82.1485 6.42182 83.2012 6.01016C84.2806 5.5817 85.4609 5.36746 86.742 5.36746C87.2605 5.36746 87.7341 5.43555 88.1628 5.57118C88.5764 5.70017 88.9705 5.87536 89.3357 6.09264C89.6893 6.30466 90.0141 6.54436 90.3111 6.81118C90.6076 7.07855 90.888 7.33928 91.1519 7.59393V1.77977C91.1519 1.50852 91.2441 1.27989 91.4274 1.09334C91.6113 0.906232 91.8869 0.813232 92.2546 0.813232H95.4344C95.5574 0.813232 95.6866 0.836482 95.8231 0.882982C95.9597 0.930036 96.0845 0.995357 96.1983 1.08061C96.3108 1.1653 96.4025 1.26716 96.4732 1.38563C96.5439 1.50464 96.5796 1.63584 96.5796 1.77977V20.7988C96.5796 21.452 96.1983 21.7786 95.4344 21.7786H92.6643C92.4761 21.7786 92.3297 21.7565 92.2264 21.7144C92.1237 21.673 92.0338 21.6097 91.9643 21.5301C91.8856 21.4367 91.8215 21.3341 91.7737 21.2251C91.7071 21.0814 91.6365 20.9393 91.5621 20.7988L91.1519 19.8063V19.8063ZM83.0247 13.7126C83.02 14.2475 83.118 14.7792 83.3144 15.2841C83.5075 15.7713 83.7831 16.1937 84.1416 16.5496C84.5036 16.9084 84.9436 17.1963 85.4345 17.3955C85.9388 17.6036 86.4972 17.7071 87.1098 17.7071C87.7126 17.7071 88.2803 17.6097 88.8129 17.4148C89.3302 17.2283 89.8027 16.9539 90.2047 16.6066C90.6042 16.2588 90.9279 15.8469 91.1593 15.3921C91.3991 14.9254 91.5338 14.425 91.5621 13.8908V13.7126C91.5642 13.1802 91.4488 12.6528 91.2226 12.1609C91.0035 11.6787 90.6846 11.2383 90.2828 10.8633C89.8801 10.4887 89.4 10.1884 88.8695 9.97927C88.3149 9.76062 87.7152 9.65007 87.1098 9.65487C86.4972 9.65487 85.9388 9.76282 85.4345 9.97927C84.9301 10.1952 84.4996 10.4902 84.1416 10.8633C83.7778 11.2452 83.4972 11.6854 83.3144 12.1609C83.1203 12.6594 83.0225 13.1843 83.0253 13.7126H83.0247ZM112.99 19.8063C112.735 20.0354 112.454 20.2812 112.148 20.5442C111.842 20.8071 111.505 21.0535 111.138 21.2821C110.768 21.5122 110.37 21.7022 109.951 21.8484C109.513 21.9991 109.048 22.0745 108.579 22.0709C107.298 22.0709 106.118 21.855 105.039 21.4221C103.986 21.0067 103.039 20.4028 102.254 19.6474C101.477 18.8967 100.869 18.0127 100.431 16.9947C99.9931 15.9772 99.7735 14.8834 99.7735 13.7126C99.7735 12.5334 99.9931 11.4374 100.431 10.4243C100.869 9.4113 101.477 8.52891 102.254 7.77827C103.038 7.02355 103.986 6.42175 105.039 6.01016C106.118 5.5817 107.298 5.36746 108.579 5.36746C109.098 5.36746 109.571 5.43555 110 5.57118C110.413 5.70017 110.807 5.87536 111.173 6.09264C111.526 6.30466 111.851 6.54436 112.148 6.81118C112.445 7.07855 112.725 7.33928 112.989 7.59393V1.77977C112.989 1.50852 113.081 1.27989 113.264 1.09334C113.449 0.906232 113.724 0.813232 114.092 0.813232H117.271C117.394 0.813232 117.524 0.836482 117.66 0.882982C117.797 0.930036 117.922 0.995357 118.035 1.08061C118.148 1.1653 118.24 1.26716 118.311 1.38563C118.381 1.50464 118.417 1.63584 118.417 1.77977V20.7988C118.417 21.452 118.035 21.7786 117.271 21.7786H114.501C114.313 21.7786 114.167 21.7565 114.063 21.7144C113.961 21.6729 113.871 21.6096 113.802 21.5301C113.723 21.4367 113.659 21.3341 113.611 21.2251C113.544 21.0814 113.474 20.9393 113.399 20.7988L112.989 19.8063H112.99ZM104.862 13.7126C104.857 14.2475 104.955 14.7792 105.151 15.2841C105.345 15.7713 105.621 16.1937 105.979 16.5496C106.341 16.9084 106.781 17.1963 107.272 17.3955C107.776 17.6036 108.334 17.7071 108.947 17.7071C109.55 17.7071 110.117 17.6097 110.65 17.4148C111.167 17.2284 111.64 16.954 112.042 16.6066C112.441 16.2587 112.765 15.8468 112.996 15.3921C113.236 14.9254 113.371 14.425 113.399 13.8908V13.7126C113.401 13.1802 113.286 12.6528 113.06 12.1609C112.841 11.6787 112.522 11.2383 112.12 10.8633C111.717 10.4887 111.237 10.1884 110.706 9.97927C110.152 9.76062 109.552 9.65007 108.947 9.65487C108.334 9.65487 107.776 9.76282 107.272 9.97927C106.768 10.1952 106.337 10.4902 105.979 10.8633C105.615 11.2452 105.334 11.6854 105.151 12.1609C104.957 12.6594 104.859 13.1843 104.862 13.7126H104.862ZM122.177 1.7925C122.177 1.52125 122.252 1.29263 122.403 1.10607C122.554 0.918965 122.813 0.825965 123.18 0.825965H126.643C126.738 0.825965 126.837 0.849215 126.94 0.895715C127.049 0.945861 127.147 1.01275 127.23 1.09334C127.319 1.17804 127.394 1.27989 127.456 1.39836C127.517 1.51738 127.548 1.64857 127.548 1.7925V20.7988C127.548 21.121 127.447 21.3646 127.244 21.5301C127.041 21.6956 126.78 21.7781 126.46 21.7781H123.18C122.813 21.7781 122.554 21.6951 122.403 21.5301C122.252 21.3646 122.177 21.1204 122.177 20.7988V1.7925ZM145.979 19.8445C145.16 20.5259 144.212 21.0707 143.181 21.4537C142.136 21.8411 141.017 22.0379 139.887 22.0327C138.596 22.0327 137.376 21.8207 136.226 21.3961C135.103 20.9874 134.076 20.3896 133.202 19.6347C132.33 18.8783 131.63 17.9776 131.138 16.9819C130.629 15.9645 130.375 14.8579 130.375 13.6616C130.375 12.9154 130.476 12.1924 130.679 11.4927C130.875 10.8081 131.164 10.148 131.541 9.52755C131.913 8.91685 132.369 8.35056 132.898 7.84193C133.425 7.33244 134.027 6.88944 134.686 6.52498C135.356 6.15583 136.079 5.86912 136.834 5.67248C137.629 5.4663 138.452 5.36358 139.279 5.36746C140.061 5.36746 140.819 5.46102 141.554 5.64757C142.289 5.83412 142.98 6.09707 143.625 6.43586C144.271 6.7752 144.862 7.18262 145.399 7.65759C145.929 8.12464 146.394 8.6479 146.784 9.21589C147.171 9.77975 147.473 10.3871 147.682 11.0222C147.894 11.6627 148 12.322 148 13.0001C148 13.4413 147.993 13.8017 147.979 14.0818C147.964 14.3613 147.891 14.5844 147.76 14.7494C147.627 14.9155 147.409 15.0295 147.102 15.0926C146.796 15.1568 146.346 15.1884 145.753 15.1884H135.576C135.67 15.7309 135.861 16.1848 136.148 16.5502C136.414 16.896 136.753 17.1918 137.145 17.4209C137.522 17.6374 137.922 17.7918 138.346 17.8859C138.739 17.9755 139.142 18.0223 139.548 18.0254C139.887 18.0254 140.235 17.9933 140.593 17.9302C140.946 17.8679 141.293 17.7828 141.633 17.6756C141.95 17.5763 142.257 17.4528 142.551 17.3063C142.829 17.1668 143.053 17.0201 143.222 16.8679C143.373 16.7572 143.503 16.6747 143.611 16.6194C143.719 16.564 143.835 16.5369 143.957 16.5369C144.08 16.5369 144.205 16.5756 144.333 16.6515C144.488 16.749 144.632 16.8596 144.763 16.9819L146.261 18.5087C146.365 18.6194 146.431 18.7191 146.459 18.8076C146.488 18.8967 146.502 18.9881 146.502 19.0811C146.502 19.251 146.45 19.3972 146.346 19.5201C146.242 19.6437 146.118 19.753 145.978 19.8445H145.979ZM139.18 9.24745C138.813 9.24745 138.457 9.31332 138.113 9.44452C137.764 9.5786 137.438 9.75639 137.145 9.97262C136.843 10.1929 136.573 10.4432 136.332 10.7233C136.103 10.9874 135.906 11.2732 135.745 11.5758H142.968C142.778 11.2568 142.564 10.9506 142.325 10.6596C142.098 10.3835 141.832 10.1354 141.534 9.9217C141.228 9.70549 140.884 9.53775 140.516 9.4257C140.134 9.30668 139.689 9.24745 139.18 9.24745Z" fill="white"/>
</g>
<defs>
<clipPath id="clip0_233_2">
<rect width="148" height="23" fill="white"/>
</clipPath>
</defs>
</svg>
