<svg width="10" height="2" viewBox="0 0 10 2" fill="none" xmlns="http://www.w3.org/2000/svg">
<g clip-path="url(#clip0_233_2)">
<path d="M1.17527 0.0761721C0.862266 0.0760277 0.535692 0.138846 0.206079 0.220329C0.164224 0.227839 0.123382 0.252244 0.101786 0.282426C0.0819321 0.310874 0.0747199 0.339431 0.0685207 0.36936C0.0365115 0.529222 0.0404013 0.686196 0.0470462 0.860138C0.0485048 0.899959 0.0551498 0.947145 0.0760165 0.975846C0.0978151 1.00484 0.135173 1.02325 0.179783 1.02928C0.236775 1.03673 0.293947 1.04305 0.351254 1.04823L0.338613 1.36225C0.336668 1.38723 0.350363 1.40799 0.367381 1.41994C0.382615 1.43027 0.399592 1.43485 0.417015 1.43601C0.45186 1.43835 0.492743 1.42507 0.513042 1.39063C0.601979 1.23813 0.657772 1.1708 0.768994 1.0695C1.05902 1.07585 1.31222 1.06148 1.59888 1.0426C1.70022 1.04025 1.76979 0.966423 1.78818 0.907468C1.84316 0.754682 1.85171 0.566083 1.85755 0.375426C1.86002 0.299863 1.8306 0.225673 1.77854 0.186465C1.72902 0.150688 1.66906 0.137727 1.61412 0.124441C1.46149 0.0936457 1.30881 0.0771108 1.17527 0.0761721ZM1.5922 0.195671C1.64722 0.208993 1.69572 0.22181 1.72631 0.24394C1.77736 0.292282 1.77566 0.324449 1.77493 0.376617C1.76918 0.561534 1.75921 0.740999 1.71237 0.876997C1.69219 0.927721 1.65702 0.963824 1.59058 0.969275C1.29852 0.988518 1.04512 1.00339 0.751571 0.995955C0.745855 0.995792 0.740163 0.996676 0.734845 0.998551C0.729528 1.00043 0.724698 1.00325 0.720656 1.00686C0.59732 1.11784 0.534233 1.19495 0.440232 1.35619C0.438044 1.35987 0.433303 1.36211 0.427469 1.3625C0.423538 1.36232 0.421958 1.35962 0.421715 1.35716L0.434438 1.01664C0.435208 0.998266 0.41819 0.98072 0.397688 0.978734C0.329136 0.9729 0.260772 0.965436 0.192667 0.956351C0.163251 0.952343 0.152393 0.945159 0.14433 0.934473C0.13031 0.904688 0.130635 0.886276 0.129541 0.857646C0.122977 0.685257 0.119735 0.534601 0.149435 0.384704C0.15219 0.362537 0.161509 0.339865 0.171396 0.320911C0.187765 0.298094 0.212845 0.294737 0.238007 0.288527C0.560367 0.20921 0.875759 0.149893 1.17267 0.149713C1.31821 0.154406 1.47105 0.167403 1.5922 0.195671V0.195671ZM0.478805 0.48774C0.434397 0.535143 0.438814 0.599514 0.473132 0.64262C0.491041 0.665184 0.518999 0.683344 0.553034 0.687459C0.597239 0.690709 0.625277 0.674751 0.655544 0.656411C0.710365 0.613955 0.715915 0.539872 0.674223 0.486369C0.652991 0.459111 0.619037 0.442757 0.584354 0.441601C0.536867 0.442035 0.504615 0.460916 0.478805 0.487704V0.48774ZM0.959185 0.449039C0.914939 0.450302 0.879162 0.477596 0.857323 0.507055C0.832323 0.540739 0.817737 0.582907 0.837955 0.624244C0.876853 0.703778 1.01125 0.702803 1.06486 0.621969C1.08957 0.584712 1.08325 0.542364 1.06486 0.51164C1.04654 0.480953 1.01883 0.455934 0.978512 0.450194C0.972126 0.449258 0.965654 0.448871 0.959185 0.449039V0.449039ZM1.34917 0.456512C1.33539 0.456223 1.32121 0.457378 1.30792 0.460519C1.25476 0.473155 1.2095 0.522038 1.21635 0.584603C1.21984 0.616085 1.23608 0.646772 1.26538 0.667928C1.29467 0.689048 1.33722 0.698507 1.38207 0.690311C1.43361 0.680925 1.46554 0.64392 1.47619 0.608178C1.48685 0.572437 1.48418 0.536009 1.45942 0.506478C1.44654 0.491216 1.42991 0.478779 1.41081 0.47012C1.39171 0.46146 1.37064 0.456805 1.34921 0.456512H1.34917ZM0.580748 0.515106C0.590675 0.515178 0.598495 0.517994 0.606558 0.52832C0.624588 0.551497 0.619564 0.586625 0.601371 0.600705C0.58326 0.614785 0.571955 0.616013 0.564014 0.615074C0.556072 0.614099 0.548009 0.609225 0.540797 0.600127C0.527021 0.582798 0.522969 0.554783 0.541081 0.534782C0.550724 0.523374 0.56843 0.516261 0.580788 0.515106H0.580748ZM0.964979 0.523157C0.966519 0.523374 0.983779 0.532291 0.992045 0.546118C1.00031 0.559945 1.00185 0.572798 0.99399 0.584603C0.970611 0.619839 0.920895 0.610308 0.913359 0.594965C0.910523 0.589116 0.91267 0.565614 0.926325 0.54731C0.939898 0.528933 0.956997 0.522038 0.964979 0.523121V0.523157ZM1.39301 0.550162C1.39552 0.553158 1.40164 0.573267 1.3969 0.589225C1.39212 0.605182 1.38434 0.615038 1.3653 0.618504C1.3409 0.62298 1.32721 0.618504 1.31696 0.61103C1.30667 0.603629 1.29974 0.591102 1.29824 0.577708C1.29459 0.544494 1.30796 0.536804 1.32919 0.531749C1.35391 0.526334 1.38187 0.535793 1.39301 0.550162V0.550162Z" fill="white"/>
<path d="M2.37622 0.224779C2.37687 0.215392 2.38072 0.206944 2.38785 0.199471C2.39132 0.195808 2.39568 0.192896 2.4006 0.190957C2.40552 0.189018 2.41088 0.188102 2.41625 0.188279H2.69283C2.70215 0.188279 2.71175 0.191745 2.72168 0.198641C2.72633 0.201616 2.73011 0.205543 2.7327 0.210092C2.7353 0.21464 2.73663 0.219677 2.73659 0.224779V0.618043H3.19934V0.224779C3.19934 0.214815 3.20323 0.206258 3.21097 0.199074C3.21875 0.191854 3.2288 0.188243 3.24124 0.188243H3.51408C3.52648 0.188243 3.53734 0.191023 3.54666 0.196547C3.55598 0.202107 3.56064 0.210952 3.56064 0.223118V1.38381C3.56064 1.39598 3.55659 1.40511 3.54848 1.41118C3.54046 1.41728 3.52989 1.42031 3.51688 1.42031H3.24124C3.22884 1.42031 3.21875 1.41728 3.21097 1.41118C3.20323 1.40511 3.19934 1.39602 3.19934 1.38381V0.912567H2.73659V1.38381C2.73659 1.39544 2.73237 1.40439 2.72403 1.41078C2.71564 1.41714 2.70429 1.42031 2.68999 1.42031H2.41625C2.3902 1.42031 2.37687 1.40952 2.37622 1.38796V0.224779ZM4.92378 1.40623C4.91572 1.4123 4.90717 1.41616 4.89818 1.41782C4.88977 1.41944 4.88121 1.42028 4.87261 1.42035H4.73201C4.72083 1.42035 4.71119 1.41854 4.70312 1.41493C4.69502 1.41132 4.68821 1.40649 4.68262 1.40042C4.6769 1.39412 4.67221 1.38713 4.66868 1.37966C4.66493 1.37186 4.66182 1.36382 4.65936 1.35562L4.63051 1.2494C4.6212 1.26655 4.6077 1.28605 4.59 1.30789C4.57084 1.33107 4.54812 1.35173 4.52249 1.36926C4.49518 1.3884 4.46257 1.40443 4.42472 1.41742C4.38684 1.43042 4.3434 1.43692 4.29434 1.43692C4.22359 1.43692 4.15933 1.42475 4.10159 1.40042C4.04507 1.37689 3.99477 1.34295 3.95403 1.30085C3.91339 1.25883 3.88187 1.20973 3.85954 1.15355C3.83717 1.09745 3.82599 1.03755 3.82599 0.973978V0.430527C3.82599 0.409515 3.83114 0.39363 3.84139 0.382836C3.8516 0.372041 3.86789 0.366662 3.89025 0.366662H4.10532C4.13206 0.366662 4.15034 0.370633 4.16026 0.378684C4.17019 0.386699 4.17517 0.402331 4.17517 0.425545V0.965638C4.17517 0.989466 4.18125 1.01199 4.19333 1.03329C4.20544 1.05459 4.22141 1.07337 4.2413 1.08969C4.26115 1.106 4.28364 1.11889 4.3088 1.12828C4.33392 1.13767 4.35953 1.14236 4.38562 1.14236C4.40795 1.14236 4.43109 1.13767 4.45499 1.12828C4.47905 1.11877 4.50134 1.10604 4.52108 1.09052C4.54125 1.07478 4.55787 1.05622 4.57091 1.03492C4.58396 1.01362 4.59044 0.99109 4.59044 0.967335V0.428036C4.59044 0.418649 4.59247 0.409263 4.59652 0.39984C4.60057 0.390453 4.60661 0.383233 4.61467 0.378251C4.62274 0.373846 4.63035 0.370814 4.63748 0.369153C4.64461 0.367492 4.65288 0.366626 4.66216 0.366626H4.87261C4.89927 0.366626 4.91852 0.372474 4.93031 0.384063C4.9421 0.395688 4.94801 0.411176 4.94801 0.430527V1.35894C4.94801 1.36941 4.94538 1.37912 4.94011 1.38796C4.93484 1.39681 4.92755 1.40374 4.91823 1.40869L4.92378 1.40623V1.40623ZM6.00484 1.29172C5.98807 1.30666 5.96959 1.32269 5.94945 1.33984C5.92927 1.35699 5.90707 1.37305 5.88288 1.38796C5.85853 1.40297 5.83229 1.41537 5.80468 1.4249C5.77585 1.43472 5.7452 1.43965 5.71433 1.43941C5.62993 1.43941 5.55217 1.42533 5.48107 1.3971C5.41175 1.37 5.34934 1.33062 5.29764 1.28135C5.24643 1.2324 5.2064 1.17474 5.17755 1.10835C5.14866 1.04199 5.13423 0.970656 5.13423 0.8943C5.13423 0.817401 5.14866 0.745918 5.17755 0.679851C5.2064 0.613783 5.24643 0.556236 5.29764 0.507281C5.34928 0.458064 5.41171 0.418817 5.48107 0.39197C5.55217 0.364026 5.62993 0.350055 5.71433 0.350055C5.74848 0.350055 5.77968 0.354495 5.80792 0.36334C5.83517 0.371753 5.86113 0.383178 5.88519 0.397349C5.90849 0.411176 5.92988 0.426809 5.94945 0.44421C5.96898 0.461647 5.98746 0.478652 6.00484 0.495259V0.116074C6.00484 0.0983843 6.01092 0.0834739 6.02299 0.0713074C6.03511 0.0591048 6.05326 0.0530396 6.07749 0.0530396H6.28697C6.29507 0.0530396 6.30358 0.0545559 6.31257 0.0575885C6.32157 0.0606572 6.32979 0.0649173 6.33729 0.070477C6.3447 0.0760007 6.35074 0.0826436 6.3554 0.0903695C6.36006 0.0981316 6.36241 0.106688 6.36241 0.116074V1.35645C6.36241 1.39905 6.33729 1.42035 6.28697 1.42035H6.10447C6.09208 1.42035 6.08243 1.4189 6.07563 1.41616C6.06886 1.41346 6.06294 1.40933 6.05836 1.40414C6.05318 1.39805 6.04895 1.39136 6.0458 1.38425C6.04142 1.37488 6.03677 1.36561 6.03187 1.35645L6.00484 1.29172V1.29172ZM5.46944 0.8943C5.46913 0.929189 5.47558 0.963864 5.48852 0.996794C5.50124 1.02856 5.5194 1.05611 5.54302 1.07932C5.56686 1.10272 5.59585 1.1215 5.62819 1.13449C5.66141 1.14806 5.6982 1.15482 5.73856 1.15482C5.77826 1.15482 5.81566 1.14846 5.85075 1.13575C5.88483 1.12359 5.91596 1.10569 5.94244 1.08304C5.96876 1.06036 5.99008 1.0335 6.00533 1.00383C6.02113 0.9734 6.03 0.940763 6.03187 0.905925V0.8943C6.03201 0.859581 6.0244 0.825183 6.0095 0.793104C5.99507 0.761656 5.97406 0.732938 5.94759 0.70848C5.92105 0.68405 5.88943 0.664466 5.85448 0.650824C5.81795 0.636565 5.77844 0.629355 5.73856 0.629668C5.6982 0.629668 5.66141 0.636708 5.62819 0.650824C5.59496 0.664904 5.5666 0.684147 5.54302 0.70848C5.51905 0.733388 5.50056 0.762097 5.48852 0.793104C5.47573 0.825619 5.46929 0.859846 5.46948 0.8943H5.46944ZM7.44347 1.29172C7.42669 1.30666 7.40822 1.32269 7.38804 1.33984C7.36786 1.35699 7.34566 1.37305 7.32147 1.38796C7.29712 1.40297 7.27087 1.41537 7.24327 1.4249C7.21443 1.43472 7.18379 1.43965 7.15292 1.43941C7.06852 1.43941 6.99076 1.42533 6.91969 1.3971C6.85036 1.37 6.78794 1.33062 6.73623 1.28135C6.68505 1.2324 6.64498 1.17474 6.61613 1.10835C6.58729 1.04199 6.57282 0.970656 6.57282 0.8943C6.57282 0.817401 6.58729 0.745918 6.61613 0.679851C6.64498 0.613783 6.68501 0.556236 6.73623 0.507281C6.78788 0.45806 6.85033 0.418813 6.91969 0.39197C6.99076 0.364026 7.06852 0.350055 7.15292 0.350055C7.18707 0.350055 7.21827 0.354495 7.24651 0.36334C7.27376 0.371753 7.29972 0.383178 7.32378 0.397349C7.34708 0.411176 7.36847 0.426809 7.38804 0.44421C7.40761 0.461647 7.42605 0.478652 7.44343 0.495259V0.116074C7.44343 0.0983843 7.44951 0.0834739 7.46158 0.0713074C7.47374 0.0591048 7.49185 0.0530396 7.51608 0.0530396H7.72555C7.73366 0.0530396 7.74217 0.0545559 7.75116 0.0575885C7.7602 0.0606572 7.76842 0.0649173 7.77588 0.070477C7.78329 0.0760007 7.78937 0.0826436 7.79403 0.0903695C7.79865 0.0981316 7.801 0.106688 7.801 0.116074V1.35645C7.801 1.39905 7.77588 1.42035 7.72555 1.42035H7.54306C7.53066 1.42035 7.52102 1.4189 7.51421 1.41616C7.50747 1.41345 7.50156 1.40933 7.49699 1.40414C7.49181 1.39805 7.48758 1.39136 7.48443 1.38425C7.48003 1.37488 7.47537 1.36561 7.47045 1.35645L7.44343 1.29172H7.44347ZM6.90803 0.8943C6.90771 0.929189 6.91417 0.963864 6.92711 0.996794C6.93987 1.02856 6.95802 1.05611 6.98161 1.07932C7.00546 1.10273 7.03447 1.1215 7.06681 1.13449C7.10004 1.14806 7.13679 1.15482 7.17714 1.15482C7.21685 1.15482 7.25425 1.14846 7.28934 1.13575C7.32343 1.12359 7.35458 1.1057 7.38107 1.08304C7.40736 1.06035 7.42866 1.03349 7.44387 1.00383C7.45972 0.9734 7.46859 0.940763 7.47045 0.905925V0.8943C7.47059 0.859581 7.46299 0.825183 7.44809 0.793104C7.43365 0.761656 7.41264 0.732938 7.38618 0.70848C7.35964 0.68405 7.32802 0.664466 7.29307 0.650824C7.25653 0.636565 7.21703 0.629355 7.17714 0.629668C7.13679 0.629668 7.1 0.636708 7.06681 0.650824C7.03359 0.664904 7.00519 0.684147 6.98161 0.70848C6.95764 0.733388 6.93915 0.762097 6.92711 0.793104C6.91432 0.825619 6.90788 0.859846 6.90807 0.8943H6.90803ZM8.04873 0.116905C8.04873 0.0992146 8.05367 0.0843043 8.0636 0.0721378C8.07356 0.0599351 8.09062 0.0538699 8.11481 0.0538699H8.34293C8.34917 0.0538699 8.35569 0.0553862 8.3625 0.0584188C8.36965 0.0616892 8.37611 0.0660513 8.38158 0.0713074C8.3875 0.0768311 8.39244 0.0834739 8.39649 0.0911999C8.40054 0.0989619 8.40257 0.107518 8.40257 0.116905V1.35645C8.40257 1.37746 8.39588 1.39334 8.38251 1.40414C8.36918 1.41493 8.35196 1.42031 8.33085 1.42031H8.11481C8.09062 1.42031 8.07356 1.4149 8.0636 1.40414C8.05367 1.39334 8.04873 1.37742 8.04873 1.35645V0.116905ZM9.61677 1.29421C9.56278 1.33865 9.50036 1.37418 9.43241 1.39916C9.36361 1.42442 9.28985 1.43726 9.21544 1.43692C9.13035 1.43692 9.05 1.42309 8.97428 1.3954C8.90026 1.36875 8.83263 1.32976 8.77501 1.28052C8.71761 1.2312 8.67145 1.17245 8.63907 1.10752C8.60552 1.04116 8.58879 0.968996 8.58879 0.890978C8.58879 0.842312 8.59543 0.795162 8.6088 0.749529C8.62172 0.70488 8.6408 0.66183 8.66561 0.621365C8.69013 0.581537 8.72016 0.544605 8.75499 0.511433C8.78973 0.478205 8.82935 0.449314 8.87278 0.425545C8.91696 0.40147 8.96456 0.382772 9.01431 0.369947C9.06665 0.3565 9.12089 0.349802 9.17537 0.350055C9.2269 0.350055 9.27686 0.356156 9.32528 0.368323C9.3737 0.380489 9.4192 0.397638 9.46171 0.419732C9.50425 0.441863 9.54315 0.468435 9.57856 0.499411C9.61348 0.52987 9.64412 0.563996 9.66981 0.601039C9.69526 0.637812 9.71515 0.677423 9.72896 0.718841C9.7429 0.760612 9.74991 0.80361 9.74991 0.847836C9.74991 0.876609 9.74942 0.900112 9.74849 0.91838C9.74756 0.936612 9.74274 0.951161 9.73407 0.961919C9.72536 0.97275 9.71097 0.980187 9.69075 0.984303C9.67058 0.988491 9.64092 0.990549 9.60186 0.990549H8.93145C8.93765 1.02593 8.95021 1.05553 8.96913 1.07936C8.98666 1.10191 9.00895 1.1212 9.03477 1.13615C9.05961 1.15027 9.08598 1.16034 9.11394 1.16648C9.13981 1.17232 9.16638 1.17537 9.19307 1.17557C9.21544 1.17557 9.23837 1.17348 9.26195 1.16936C9.28519 1.1653 9.30808 1.15975 9.33043 1.15276C9.35133 1.14629 9.37157 1.13823 9.39092 1.12868C9.40923 1.11958 9.42398 1.11001 9.43517 1.10008C9.44509 1.09286 9.45364 1.08748 9.46077 1.08387C9.4679 1.08026 9.47552 1.07849 9.48358 1.07849C9.49169 1.07849 9.49987 1.08102 9.5083 1.08597C9.51851 1.09233 9.52801 1.09954 9.53666 1.10752L9.63537 1.20709C9.64217 1.21431 9.64655 1.22081 9.64841 1.22659C9.65028 1.2324 9.65121 1.23836 9.65121 1.24442C9.65121 1.2555 9.64776 1.26504 9.64096 1.27305C9.63408 1.28111 9.62591 1.28824 9.61673 1.29421H9.61677ZM9.16888 0.603097C9.14465 0.603097 9.12123 0.607393 9.09858 0.615949C9.0756 0.624694 9.05411 0.636289 9.03477 0.650391C9.01491 0.66476 8.99709 0.681078 8.98124 0.699346C8.96613 0.716569 8.95316 0.735212 8.94259 0.754944H9.41839C9.40591 0.734143 9.39176 0.714174 9.37605 0.695194C9.36111 0.677187 9.34358 0.661007 9.3239 0.64707C9.30378 0.632969 9.2811 0.62203 9.25685 0.614722C9.23173 0.60696 9.20239 0.603097 9.16888 0.603097Z" fill="white"/>
</g>
<defs>
<clipPath id="clip0_233_2">
<rect width="9.75" height="1.5" fill="white"/>
</clipPath>
</defs>
</svg>
