<svg width="32" height="32" viewBox="0 0 32 32" fill="none" xmlns="http://www.w3.org/2000/svg">
<path d="M20.5 12C20.7761 12 21 11.7761 21 11.5C21 11.2239 20.7761 11 20.5 11C20.2239 11 20 11.2239 20 11.5C20 11.7761 20.2239 12 20.5 12Z" fill="white"/>
<path d="M16 12C15.2089 12 14.4355 12.2346 13.7777 12.6741C13.1199 13.1136 12.6072 13.7384 12.3045 14.4693C12.0017 15.2002 11.9225 16.0044 12.0769 16.7804C12.2312 17.5563 12.6122 18.269 13.1716 18.8284C13.731 19.3878 14.4437 19.7688 15.2196 19.9231C15.9956 20.0775 16.7998 19.9983 17.5307 19.6955C18.2616 19.3928 18.8864 18.8801 19.3259 18.2223C19.7654 17.5645 20 16.7911 20 16C20 14.9391 19.5786 13.9217 18.8284 13.1716C18.0783 12.4214 17.0609 12 16 12ZM16 18.5966C15.4864 18.5966 14.9844 18.4443 14.5574 18.159C14.1304 17.8736 13.7976 17.4681 13.6011 16.9937C13.4046 16.5192 13.3531 15.9971 13.4533 15.4934C13.5535 14.9898 13.8008 14.5271 14.164 14.164C14.5271 13.8008 14.9898 13.5535 15.4934 13.4533C15.9971 13.3531 16.5192 13.4046 16.9937 13.6011C17.4681 13.7976 17.8736 14.1304 18.159 14.5574C18.4443 14.9844 18.5966 15.4864 18.5966 16C18.5966 16.6886 18.323 17.3491 17.836 17.836C17.3491 18.323 16.6887 18.5966 16 18.5966Z" fill="white"/>
<path d="M16 9.44133C18.136 9.44133 18.3893 9.44933 19.2327 9.488C19.7399 9.49402 20.2423 9.58715 20.718 9.76333C21.0631 9.89646 21.3765 10.1004 21.6381 10.3619C21.8996 10.6235 22.1035 10.9369 22.2367 11.282C22.4128 11.7577 22.506 12.2601 22.512 12.7673C22.5507 13.6107 22.5587 13.864 22.5587 16.0007C22.5587 18.1373 22.5507 18.3893 22.512 19.2327C22.506 19.7399 22.4128 20.2423 22.2367 20.718C22.1035 21.0631 21.8996 21.3765 21.6381 21.6381C21.3765 21.8996 21.0631 22.1035 20.718 22.2367C20.2423 22.4128 19.7399 22.506 19.2327 22.512C18.3893 22.5507 18.136 22.5587 16 22.5587C13.864 22.5587 13.6107 22.5507 12.7673 22.512C12.2601 22.506 11.7577 22.4128 11.282 22.2367C10.9369 22.1035 10.6235 21.8996 10.3619 21.6381C10.1004 21.3765 9.89646 21.0631 9.76333 20.718C9.58715 20.2423 9.49402 19.7399 9.488 19.2327C9.44933 18.3893 9.44133 18.136 9.44133 16C9.44133 13.864 9.44933 13.6107 9.488 12.7673C9.49402 12.2601 9.58715 11.7577 9.76333 11.282C9.89646 10.9369 10.1004 10.6235 10.3619 10.3619C10.6235 10.1004 10.9369 9.89646 11.282 9.76333C11.7577 9.58715 12.2601 9.49402 12.7673 9.488C13.6107 9.44933 13.864 9.44133 16 9.44133ZM16 8C13.8273 8 13.5547 8.00933 12.7013 8.048C12.0378 8.0614 11.3814 8.18718 10.76 8.42C10.2285 8.62553 9.74577 8.93985 9.34281 9.34281C8.93985 9.74577 8.62553 10.2285 8.42 10.76C8.18711 11.3816 8.06132 12.0383 8.048 12.702C8.00933 13.5553 8 13.8267 8 16C8 18.1733 8.00933 18.4453 8.048 19.2987C8.0614 19.9622 8.18718 20.6186 8.42 21.24C8.62553 21.7715 8.93985 22.2542 9.34281 22.6572C9.74577 23.0601 10.2285 23.3745 10.76 23.58C11.3816 23.8129 12.0383 23.9387 12.702 23.952C13.5553 23.9907 13.8273 24 16 24C18.1727 24 18.4453 23.9907 19.2987 23.952C19.9624 23.9387 20.619 23.8129 21.2407 23.58C21.7722 23.3745 22.2549 23.0601 22.6579 22.6572C23.0608 22.2542 23.3751 21.7715 23.5807 21.24C23.8133 20.6183 23.9389 19.9617 23.952 19.298C23.9907 18.4447 24 18.1733 24 16C24 13.8267 23.9907 13.5547 23.952 12.7013C23.9386 12.0378 23.8128 11.3814 23.58 10.76C23.3745 10.2285 23.0601 9.74577 22.6572 9.34281C22.2542 8.93985 21.7715 8.62553 21.24 8.42C20.6183 8.18733 19.9617 8.06178 19.298 8.04867C18.4447 8.00867 18.1733 8 16 8Z" fill="white"/>
<rect x="0.5" y="0.5" width="31" height="31" rx="15.5" stroke="white"/>
</svg>
