<svg width="630" height="420" viewBox="0 0 630 420" fill="none" xmlns="http://www.w3.org/2000/svg">
<g clip-path="url(#clip0_213_123)">
<mask id="mask0_213_123" style="mask-type:luminance" maskUnits="userSpaceOnUse" x="0" y="0" width="630" height="420">
<path d="M630 0H0V420H630V0Z" fill="white"/>
</mask>
<g mask="url(#mask0_213_123)">
<g filter="url(#filter0_d_213_123)">
<path d="M578.261 5.68335H18.2608C11.5374 5.68335 6.08691 10.7724 6.08691 17.0501V335.318C6.08691 341.596 11.5374 346.685 18.2608 346.685H578.261C584.984 346.685 590.435 341.596 590.435 335.318V17.0501C590.435 10.7724 584.984 5.68335 578.261 5.68335Z" fill="black"/>
</g>
<path d="M578.261 5.68335H18.2608C11.5374 5.68335 6.08691 10.7724 6.08691 17.0501V335.318C6.08691 341.596 11.5374 346.685 18.2608 346.685H578.261C584.984 346.685 590.435 341.596 590.435 335.318V17.0501C590.435 10.7724 584.984 5.68335 578.261 5.68335Z" fill="white"/>
<g filter="url(#filter1_d_213_123)">
<path d="M18.2608 5.68335H578.261C584.984 5.68335 590.435 10.7722 590.435 17.0501V42.0568H6.08691V17.0501C6.08691 10.7722 11.5372 5.68335 18.2608 5.68335Z" fill="black"/>
</g>
<path d="M18.2608 5.68335H578.261C584.984 5.68335 590.435 10.7722 590.435 17.0501V42.0568H6.08691V17.0501C6.08691 10.7722 11.5372 5.68335 18.2608 5.68335Z" fill="#00252E"/>
<path d="M168.609 17.05H52.9566C51.2757 17.05 49.9131 18.3224 49.9131 19.8918V27.8484C49.9131 29.4178 51.2757 30.6901 52.9566 30.6901H168.609C170.29 30.6901 171.652 29.4178 171.652 27.8484V19.8918C171.652 18.3224 170.29 17.05 168.609 17.05Z" fill="#E1E8EE"/>
<path d="M550.261 18.1866H533.217C532.545 18.1866 532 18.6955 532 19.3233C532 19.9511 532.545 20.46 533.217 20.46H550.261C550.933 20.46 551.478 19.9511 551.478 19.3233C551.478 18.6955 550.933 18.1866 550.261 18.1866Z" fill="#D8D8D8"/>
<path d="M550.261 22.7334H533.217C532.545 22.7334 532 23.2423 532 23.8701C532 24.4979 532.545 25.0068 533.217 25.0068H550.261C550.933 25.0068 551.478 24.4979 551.478 23.8701C551.478 23.2423 550.933 22.7334 550.261 22.7334Z" fill="#D8D8D8"/>
<path d="M550.261 27.2802H533.217C532.545 27.2802 532 27.7891 532 28.4169C532 29.0447 532.545 29.5536 533.217 29.5536H550.261C550.933 29.5536 551.478 29.0447 551.478 28.4169C551.478 27.7891 550.933 27.2802 550.261 27.2802Z" fill="#D8D8D8"/>
<path d="M79.1305 138.674C95.2668 138.674 108.348 126.46 108.348 111.394C108.348 96.3274 95.2668 84.1136 79.1305 84.1136C62.9942 84.1136 49.9131 96.3274 49.9131 111.394C49.9131 126.46 62.9942 138.674 79.1305 138.674Z" fill="url(#paint0_linear_213_123)"/>
<path d="M210.609 90.9337H144.261C143.252 90.9337 142.435 91.697 142.435 92.6387V98.322C142.435 99.2637 143.252 100.027 144.261 100.027H210.609C211.617 100.027 212.435 99.2637 212.435 98.322V92.6387C212.435 91.697 211.617 90.9337 210.609 90.9337Z" fill="#E1E8EE"/>
<path d="M384.087 109.12H144.261C143.252 109.12 142.435 109.884 142.435 110.825V111.962C142.435 112.904 143.252 113.667 144.261 113.667H384.087C385.096 113.667 385.913 112.904 385.913 111.962V110.825C385.913 109.884 385.096 109.12 384.087 109.12Z" fill="#E1E8EE"/>
<path d="M363.797 118.214H144.261C143.252 118.214 142.435 118.977 142.435 119.919V121.055C142.435 121.997 143.252 122.76 144.261 122.76H363.797C364.806 122.76 365.623 121.997 365.623 121.055V119.919C365.623 118.977 364.806 118.214 363.797 118.214Z" fill="#E1E8EE"/>
<path d="M343.507 127.307H144.261C143.252 127.307 142.435 128.071 142.435 129.012V130.149C142.435 131.09 143.252 131.854 144.261 131.854H343.507C344.516 131.854 345.333 131.09 345.333 130.149V129.012C345.333 128.071 344.516 127.307 343.507 127.307Z" fill="#E1E8EE"/>
<path d="M422.435 118.214C426.469 118.214 429.739 115.16 429.739 111.394C429.739 107.627 426.469 104.574 422.435 104.574C418.401 104.574 415.13 107.627 415.13 111.394C415.13 115.16 418.401 118.214 422.435 118.214Z" fill="#A7B9C8"/>
<path d="M461.391 118.214C465.425 118.214 468.696 115.16 468.696 111.394C468.696 107.627 465.425 104.574 461.391 104.574C457.357 104.574 454.087 107.627 454.087 111.394C454.087 115.16 457.357 118.214 461.391 118.214Z" fill="#A7B9C8"/>
<path d="M441.913 118.214C445.947 118.214 449.217 115.16 449.217 111.394C449.217 107.627 445.947 104.574 441.913 104.574C437.879 104.574 434.609 107.627 434.609 111.394C434.609 115.16 437.879 118.214 441.913 118.214Z" fill="#A7B9C8"/>
<path d="M480.87 118.214C484.904 118.214 488.174 115.16 488.174 111.394C488.174 107.627 484.904 104.574 480.87 104.574C476.835 104.574 473.565 107.627 473.565 111.394C473.565 115.16 476.835 118.214 480.87 118.214Z" fill="#A7B9C8"/>
<path d="M500.348 118.214C504.382 118.214 507.652 115.16 507.652 111.394C507.652 107.627 504.382 104.574 500.348 104.574C496.314 104.574 493.043 107.627 493.043 111.394C493.043 115.16 496.314 118.214 500.348 118.214Z" fill="#A7B9C8"/>
<path d="M77.3044 212.558C92.4322 212.558 104.696 201.107 104.696 186.982C104.696 172.858 92.4322 161.407 77.3044 161.407C62.1766 161.407 49.9131 172.858 49.9131 186.982C49.9131 201.107 62.1766 212.558 77.3044 212.558Z" fill="url(#paint1_linear_213_123)"/>
<path d="M208.783 166.522H142.435C141.426 166.522 140.609 167.286 140.609 168.227V173.911C140.609 174.852 141.426 175.616 142.435 175.616H208.783C209.791 175.616 210.609 174.852 210.609 173.911V168.227C210.609 167.286 209.791 166.522 208.783 166.522Z" fill="#E1E8EE"/>
<path d="M382.261 184.709H142.435C141.426 184.709 140.609 185.472 140.609 186.414V187.551C140.609 188.492 141.426 189.256 142.435 189.256H382.261C383.269 189.256 384.087 188.492 384.087 187.551V186.414C384.087 185.472 383.269 184.709 382.261 184.709Z" fill="#E1E8EE"/>
<path d="M361.971 193.802H142.435C141.426 193.802 140.609 194.566 140.609 195.507V196.644C140.609 197.586 141.426 198.349 142.435 198.349H361.971C362.98 198.349 363.797 197.586 363.797 196.644V195.507C363.797 194.566 362.98 193.802 361.971 193.802Z" fill="#E1E8EE"/>
<path d="M341.681 202.896H142.435C141.426 202.896 140.609 203.659 140.609 204.601V205.737C140.609 206.679 141.426 207.442 142.435 207.442H341.681C342.689 207.442 343.507 206.679 343.507 205.737V204.601C343.507 203.659 342.689 202.896 341.681 202.896Z" fill="#E1E8EE"/>
<path d="M420.609 193.802C424.643 193.802 427.913 190.749 427.913 186.982C427.913 183.216 424.643 180.162 420.609 180.162C416.575 180.162 413.304 183.216 413.304 186.982C413.304 190.749 416.575 193.802 420.609 193.802Z" fill="#A7B9C8"/>
<path d="M459.565 193.802C463.599 193.802 466.87 190.749 466.87 186.982C466.87 183.216 463.599 180.162 459.565 180.162C455.531 180.162 452.261 183.216 452.261 186.982C452.261 190.749 455.531 193.802 459.565 193.802Z" fill="#A7B9C8"/>
<path d="M440.087 193.802C444.121 193.802 447.391 190.749 447.391 186.982C447.391 183.216 444.121 180.162 440.087 180.162C436.053 180.162 432.783 183.216 432.783 186.982C432.783 190.749 436.053 193.802 440.087 193.802Z" fill="#A7B9C8"/>
<path d="M77.3044 293.829C92.4322 293.829 104.696 282.379 104.696 268.254C104.696 254.13 92.4322 242.679 77.3044 242.679C62.1766 242.679 49.9131 254.13 49.9131 268.254C49.9131 282.379 62.1766 293.829 77.3044 293.829Z" fill="url(#paint2_linear_213_123)"/>
<path d="M208.783 247.794H142.435C141.426 247.794 140.609 248.558 140.609 249.499V255.183C140.609 256.124 141.426 256.888 142.435 256.888H208.783C209.791 256.888 210.609 256.124 210.609 255.183V249.499C210.609 248.558 209.791 247.794 208.783 247.794Z" fill="#E1E8EE"/>
<path d="M382.261 265.981H142.435C141.426 265.981 140.609 266.744 140.609 267.686V268.823C140.609 269.764 141.426 270.528 142.435 270.528H382.261C383.269 270.528 384.087 269.764 384.087 268.823V267.686C384.087 266.744 383.269 265.981 382.261 265.981Z" fill="#E1E8EE"/>
<path d="M361.971 275.074H142.435C141.426 275.074 140.609 275.838 140.609 276.779V277.916C140.609 278.858 141.426 279.621 142.435 279.621H361.971C362.98 279.621 363.797 278.858 363.797 277.916V276.779C363.797 275.838 362.98 275.074 361.971 275.074Z" fill="#E1E8EE"/>
<path d="M341.681 284.168H142.435C141.426 284.168 140.609 284.931 140.609 285.873V287.009C140.609 287.951 141.426 288.714 142.435 288.714H341.681C342.689 288.714 343.507 287.951 343.507 287.009V285.873C343.507 284.931 342.689 284.168 341.681 284.168Z" fill="#E1E8EE"/>
<path d="M420.609 275.074C424.643 275.074 427.913 272.021 427.913 268.254C427.913 264.488 424.643 261.434 420.609 261.434C416.575 261.434 413.304 264.488 413.304 268.254C413.304 272.021 416.575 275.074 420.609 275.074Z" fill="#A7B9C8"/>
<path d="M459.565 275.074C463.599 275.074 466.87 272.021 466.87 268.254C466.87 264.488 463.599 261.434 459.565 261.434C455.531 261.434 452.261 264.488 452.261 268.254C452.261 272.021 455.531 275.074 459.565 275.074Z" fill="#A7B9C8"/>
<path d="M440.087 275.074C444.121 275.074 447.391 272.021 447.391 268.254C447.391 264.488 444.121 261.434 440.087 261.434C436.053 261.434 432.783 264.488 432.783 268.254C432.783 272.021 436.053 275.074 440.087 275.074Z" fill="#A7B9C8"/>
<path d="M479.044 275.074C483.078 275.074 486.348 272.021 486.348 268.254C486.348 264.488 483.078 261.434 479.044 261.434C475.01 261.434 471.739 264.488 471.739 268.254C471.739 272.021 475.01 275.074 479.044 275.074Z" fill="#A7B9C8"/>
<g filter="url(#filter2_d_213_123)">
<path d="M614.133 123.897H440.128C434.39 123.897 429.739 128.24 429.739 133.597V405.185C429.739 410.542 434.39 414.885 440.128 414.885H614.133C619.87 414.885 624.522 410.542 624.522 405.185V133.597C624.522 128.24 619.87 123.897 614.133 123.897Z" fill="black"/>
</g>
<path d="M614.133 123.897H440.128C434.39 123.897 429.739 128.24 429.739 133.597V405.185C429.739 410.542 434.39 414.885 440.128 414.885H614.133C619.87 414.885 624.522 410.542 624.522 405.185V133.597C624.522 128.24 619.87 123.897 614.133 123.897Z" fill="white"/>
<g filter="url(#filter3_d_213_123)">
<path d="M440.128 123.897H614.133C619.871 123.897 624.522 128.24 624.522 133.597V154.936H429.739V133.597C429.739 128.239 434.39 123.897 440.128 123.897Z" fill="black"/>
</g>
<path d="M440.128 123.897H614.133C619.871 123.897 624.522 128.24 624.522 133.597V154.936H429.739V133.597C429.739 128.239 434.39 123.897 440.128 123.897Z" fill="#00252E"/>
<path d="M510.005 134.567H451.896C450.461 134.567 449.298 135.652 449.298 136.992V143.781C449.298 145.12 450.461 146.206 451.896 146.206H510.005C511.44 146.206 512.603 145.12 512.603 143.781V136.992C512.603 135.652 511.44 134.567 510.005 134.567Z" fill="#E1E8EE"/>
<path d="M602.706 135.537H588.163C587.589 135.537 587.124 135.971 587.124 136.507C587.124 137.042 587.589 137.476 588.163 137.476H602.706C603.28 137.476 603.745 137.042 603.745 136.507C603.745 135.971 603.28 135.537 602.706 135.537Z" fill="#D8D8D8"/>
<path d="M602.706 139.417H588.163C587.589 139.417 587.124 139.851 587.124 140.387C587.124 140.922 587.589 141.356 588.163 141.356H602.706C603.28 141.356 603.745 140.922 603.745 140.387C603.745 139.851 603.28 139.417 602.706 139.417Z" fill="#D8D8D8"/>
<path d="M602.706 143.296H588.163C587.589 143.296 587.124 143.73 587.124 144.266C587.124 144.802 587.589 145.236 588.163 145.236H602.706C603.28 145.236 603.745 144.802 603.745 144.266C603.745 143.73 603.28 143.296 602.706 143.296Z" fill="#D8D8D8"/>
<path d="M458.348 202.327C463.39 202.327 467.478 198.511 467.478 193.802C467.478 189.094 463.39 185.277 458.348 185.277C453.305 185.277 449.217 189.094 449.217 193.802C449.217 198.511 453.305 202.327 458.348 202.327Z" fill="url(#paint3_linear_213_123)"/>
<path d="M511.657 186.982H477.777C477.468 186.982 477.217 187.217 477.217 187.505V189.49C477.217 189.779 477.468 190.013 477.777 190.013H511.657C511.967 190.013 512.217 189.779 512.217 189.49V187.505C512.217 187.217 511.967 186.982 511.657 186.982Z" fill="#E1E8EE"/>
<path d="M598.396 193.045H477.777C477.468 193.045 477.217 193.279 477.217 193.568V194.038C477.217 194.327 477.468 194.561 477.777 194.561H598.396C598.706 194.561 598.956 194.327 598.956 194.038V193.568C598.956 193.279 598.706 193.045 598.396 193.045Z" fill="#E1E8EE"/>
<path d="M588.251 196.076H477.777C477.468 196.076 477.217 196.31 477.217 196.599V197.069C477.217 197.357 477.468 197.592 477.777 197.592H588.251C588.561 197.592 588.811 197.357 588.811 197.069V196.599C588.811 196.31 588.561 196.076 588.251 196.076Z" fill="#E1E8EE"/>
<path d="M578.107 199.107H477.777C477.468 199.107 477.217 199.341 477.217 199.63V200.1C477.217 200.388 477.468 200.622 477.777 200.622H578.107C578.416 200.622 578.667 200.388 578.667 200.1V199.63C578.667 199.341 578.416 199.107 578.107 199.107Z" fill="#E1E8EE"/>
<path d="M458.348 280.758C463.39 280.758 467.478 276.941 467.478 272.233C467.478 267.525 463.39 263.708 458.348 263.708C453.305 263.708 449.217 267.525 449.217 272.233C449.217 276.941 453.305 280.758 458.348 280.758Z" fill="url(#paint4_linear_213_123)"/>
<path d="M511.657 265.413H477.777C477.468 265.413 477.217 265.647 477.217 265.936V267.921C477.217 268.21 477.468 268.444 477.777 268.444H511.657C511.967 268.444 512.217 268.21 512.217 267.921V265.936C512.217 265.647 511.967 265.413 511.657 265.413Z" fill="#E1E8EE"/>
<path d="M598.396 271.475H477.777C477.468 271.475 477.217 271.709 477.217 271.998V272.468C477.217 272.757 477.468 272.991 477.777 272.991H598.396C598.706 272.991 598.956 272.757 598.956 272.468V271.998C598.956 271.709 598.706 271.475 598.396 271.475Z" fill="#E1E8EE"/>
<path d="M588.251 274.506H477.777C477.468 274.506 477.217 274.74 477.217 275.029V275.499C477.217 275.788 477.468 276.022 477.777 276.022H588.251C588.561 276.022 588.811 275.788 588.811 275.499V275.029C588.811 274.74 588.561 274.506 588.251 274.506Z" fill="#E1E8EE"/>
<path d="M578.107 277.537H477.777C477.468 277.537 477.217 277.771 477.217 278.06V278.53C477.217 278.819 477.468 279.053 477.777 279.053H578.107C578.416 279.053 578.667 278.819 578.667 278.53V278.06C578.667 277.771 578.416 277.537 578.107 277.537Z" fill="#E1E8EE"/>
<path d="M511.657 213.126H477.777C477.468 213.126 477.217 213.36 477.217 213.649V215.634C477.217 215.923 477.468 216.157 477.777 216.157H511.657C511.967 216.157 512.217 215.923 512.217 215.634V213.649C512.217 213.36 511.967 213.126 511.657 213.126Z" fill="#E1E8EE"/>
<path d="M598.396 219.188H477.777C477.468 219.188 477.217 219.422 477.217 219.711V220.181C477.217 220.47 477.468 220.704 477.777 220.704H598.396C598.706 220.704 598.956 220.47 598.956 220.181V219.711C598.956 219.422 598.706 219.188 598.396 219.188Z" fill="#E1E8EE"/>
<path d="M588.251 222.219H477.777C477.468 222.219 477.217 222.453 477.217 222.742V223.212C477.217 223.501 477.468 223.735 477.777 223.735H588.251C588.561 223.735 588.811 223.501 588.811 223.212V222.742C588.811 222.453 588.561 222.219 588.251 222.219Z" fill="#E1E8EE"/>
<path d="M578.107 225.25H477.777C477.468 225.25 477.217 225.484 477.217 225.773V226.243C477.217 226.532 477.468 226.766 477.777 226.766H578.107C578.416 226.766 578.667 226.532 578.667 226.243V225.773C578.667 225.484 578.416 225.25 578.107 225.25Z" fill="#E1E8EE"/>
<path d="M458.348 228.471C463.39 228.471 467.478 224.654 467.478 219.946C467.478 215.238 463.39 211.421 458.348 211.421C453.305 211.421 449.217 215.238 449.217 219.946C449.217 224.654 453.305 228.471 458.348 228.471Z" fill="url(#paint5_linear_213_123)"/>
<path d="M511.657 291.556H477.777C477.468 291.556 477.217 291.79 477.217 292.079V294.064C477.217 294.353 477.468 294.587 477.777 294.587H511.657C511.967 294.587 512.217 294.353 512.217 294.064V292.079C512.217 291.79 511.967 291.556 511.657 291.556Z" fill="#E1E8EE"/>
<path d="M598.396 297.619H477.777C477.468 297.619 477.217 297.853 477.217 298.141V298.611C477.217 298.9 477.468 299.134 477.777 299.134H598.396C598.706 299.134 598.956 298.9 598.956 298.611V298.141C598.956 297.853 598.706 297.619 598.396 297.619Z" fill="#E1E8EE"/>
<path d="M588.251 300.65H477.777C477.468 300.65 477.217 300.884 477.217 301.172V301.642C477.217 301.931 477.468 302.165 477.777 302.165H588.251C588.561 302.165 588.811 301.931 588.811 301.642V301.172C588.811 300.884 588.561 300.65 588.251 300.65Z" fill="#E1E8EE"/>
<path d="M578.107 303.68H477.777C477.468 303.68 477.217 303.915 477.217 304.203V304.673C477.217 304.962 477.468 305.196 477.777 305.196H578.107C578.416 305.196 578.667 304.962 578.667 304.673V304.203C578.667 303.915 578.416 303.68 578.107 303.68Z" fill="#E1E8EE"/>
<path d="M458.348 306.901C463.39 306.901 467.478 303.084 467.478 298.376C467.478 293.668 463.39 289.851 458.348 289.851C453.305 289.851 449.217 293.668 449.217 298.376C449.217 303.084 453.305 306.901 458.348 306.901Z" fill="url(#paint6_linear_213_123)"/>
<path d="M511.657 239.269H477.777C477.468 239.269 477.217 239.503 477.217 239.792V241.777C477.217 242.066 477.468 242.3 477.777 242.3H511.657C511.967 242.3 512.217 242.066 512.217 241.777V239.792C512.217 239.503 511.967 239.269 511.657 239.269Z" fill="#E1E8EE"/>
<path d="M598.396 245.332H477.777C477.468 245.332 477.217 245.566 477.217 245.855V246.325C477.217 246.613 477.468 246.847 477.777 246.847H598.396C598.706 246.847 598.956 246.613 598.956 246.325V245.855C598.956 245.566 598.706 245.332 598.396 245.332Z" fill="#E1E8EE"/>
<path d="M588.251 248.363H477.777C477.468 248.363 477.217 248.597 477.217 248.886V249.356C477.217 249.644 477.468 249.878 477.777 249.878H588.251C588.561 249.878 588.811 249.644 588.811 249.356V248.886C588.811 248.597 588.561 248.363 588.251 248.363Z" fill="#E1E8EE"/>
<path d="M578.107 251.394H477.777C477.468 251.394 477.217 251.628 477.217 251.916V252.386C477.217 252.675 477.468 252.909 477.777 252.909H578.107C578.416 252.909 578.667 252.675 578.667 252.386V251.916C578.667 251.628 578.416 251.394 578.107 251.394Z" fill="#E1E8EE"/>
<path d="M458.348 254.614C463.39 254.614 467.478 250.798 467.478 246.089C467.478 241.381 463.39 237.564 458.348 237.564C453.305 237.564 449.217 241.381 449.217 246.089C449.217 250.798 453.305 254.614 458.348 254.614Z" fill="url(#paint7_linear_213_123)"/>
<path d="M511.657 317.7H477.777C477.468 317.7 477.217 317.934 477.217 318.222V320.208C477.217 320.496 477.468 320.731 477.777 320.731H511.657C511.967 320.731 512.217 320.496 512.217 320.208V318.222C512.217 317.934 511.967 317.7 511.657 317.7Z" fill="#E1E8EE"/>
<path d="M598.396 323.762H477.777C477.468 323.762 477.217 323.996 477.217 324.285V324.755C477.217 325.044 477.468 325.278 477.777 325.278H598.396C598.706 325.278 598.956 325.044 598.956 324.755V324.285C598.956 323.996 598.706 323.762 598.396 323.762Z" fill="#E1E8EE"/>
<path d="M588.251 326.793H477.777C477.468 326.793 477.217 327.027 477.217 327.316V327.786C477.217 328.075 477.468 328.309 477.777 328.309H588.251C588.561 328.309 588.811 328.075 588.811 327.786V327.316C588.811 327.027 588.561 326.793 588.251 326.793Z" fill="#E1E8EE"/>
<path d="M578.107 329.824H477.777C477.468 329.824 477.217 330.058 477.217 330.347V330.817C477.217 331.106 477.468 331.34 477.777 331.34H578.107C578.416 331.34 578.667 331.106 578.667 330.817V330.347C578.667 330.058 578.416 329.824 578.107 329.824Z" fill="#E1E8EE"/>
<path d="M458.348 333.045C463.39 333.045 467.478 329.228 467.478 324.52C467.478 319.811 463.39 315.995 458.348 315.995C453.305 315.995 449.217 319.811 449.217 324.52C449.217 329.228 453.305 333.045 458.348 333.045Z" fill="url(#paint8_linear_213_123)"/>
<path d="M458.348 359.188C463.39 359.188 467.478 355.371 467.478 350.663C467.478 345.955 463.39 342.138 458.348 342.138C453.305 342.138 449.217 345.955 449.217 350.663C449.217 355.371 453.305 359.188 458.348 359.188Z" fill="url(#paint9_linear_213_123)"/>
<path d="M511.657 343.843H477.777C477.468 343.843 477.217 344.077 477.217 344.366V346.351C477.217 346.64 477.468 346.874 477.777 346.874H511.657C511.967 346.874 512.217 346.64 512.217 346.351V344.366C512.217 344.077 511.967 343.843 511.657 343.843Z" fill="#E1E8EE"/>
<path d="M598.396 349.905H477.777C477.468 349.905 477.217 350.14 477.217 350.428V350.898C477.217 351.187 477.468 351.421 477.777 351.421H598.396C598.706 351.421 598.956 351.187 598.956 350.898V350.428C598.956 350.14 598.706 349.905 598.396 349.905Z" fill="#E1E8EE"/>
<path d="M588.251 352.936H477.777C477.468 352.936 477.217 353.17 477.217 353.459V353.929C477.217 354.218 477.468 354.452 477.777 354.452H588.251C588.561 354.452 588.811 354.218 588.811 353.929V353.459C588.811 353.17 588.561 352.936 588.251 352.936Z" fill="#E1E8EE"/>
<path d="M578.107 355.967H477.777C477.468 355.967 477.217 356.201 477.217 356.49V356.96C477.217 357.249 477.468 357.483 477.777 357.483H578.107C578.416 357.483 578.667 357.249 578.667 356.96V356.49C578.667 356.201 578.416 355.967 578.107 355.967Z" fill="#E1E8EE"/>
<path d="M511.657 369.986H477.777C477.468 369.986 477.217 370.221 477.217 370.509V372.495C477.217 372.783 477.468 373.017 477.777 373.017H511.657C511.967 373.017 512.217 372.783 512.217 372.495V370.509C512.217 370.221 511.967 369.986 511.657 369.986Z" fill="#E1E8EE"/>
<path d="M598.396 376.049H477.777C477.468 376.049 477.217 376.283 477.217 376.572V377.042C477.217 377.331 477.468 377.565 477.777 377.565H598.396C598.706 377.565 598.956 377.331 598.956 377.042V376.572C598.956 376.283 598.706 376.049 598.396 376.049Z" fill="#E1E8EE"/>
<path d="M588.251 379.08H477.777C477.468 379.08 477.217 379.314 477.217 379.603V380.073C477.217 380.361 477.468 380.596 477.777 380.596H588.251C588.561 380.596 588.811 380.361 588.811 380.073V379.603C588.811 379.314 588.561 379.08 588.251 379.08Z" fill="#E1E8EE"/>
<path d="M578.107 382.111H477.777C477.468 382.111 477.217 382.345 477.217 382.634V383.104C477.217 383.392 477.468 383.627 477.777 383.627H578.107C578.416 383.627 578.667 383.392 578.667 383.104V382.634C578.667 382.345 578.416 382.111 578.107 382.111Z" fill="#E1E8EE"/>
<path d="M458.348 385.332C463.39 385.332 467.478 381.515 467.478 376.806C467.478 372.098 463.39 368.281 458.348 368.281C453.305 368.281 449.217 372.098 449.217 376.806C449.217 381.515 453.305 385.332 458.348 385.332Z" fill="url(#paint10_linear_213_123)"/>
</g>
</g>
<defs>
<filter id="filter0_d_213_123" x="-3.91309" y="-4.31665" width="604.348" height="361.002" filterUnits="userSpaceOnUse" color-interpolation-filters="sRGB">
<feFlood flood-opacity="0" result="BackgroundImageFix"/>
<feColorMatrix in="SourceAlpha" type="matrix" values="0 0 0 0 0 0 0 0 0 0 0 0 0 0 0 0 0 0 127 0" result="hardAlpha"/>
<feOffset/>
<feGaussianBlur stdDeviation="5"/>
<feColorMatrix type="matrix" values="0 0 0 0 0 0 0 0 0 0.145098 0 0 0 0 0.180392 0 0 0 0.181839 0"/>
<feBlend mode="normal" in2="BackgroundImageFix" result="effect1_dropShadow_213_123"/>
<feBlend mode="normal" in="SourceGraphic" in2="effect1_dropShadow_213_123" result="shape"/>
</filter>
<filter id="filter1_d_213_123" x="-3.91309" y="-4.31665" width="604.348" height="56.3734" filterUnits="userSpaceOnUse" color-interpolation-filters="sRGB">
<feFlood flood-opacity="0" result="BackgroundImageFix"/>
<feColorMatrix in="SourceAlpha" type="matrix" values="0 0 0 0 0 0 0 0 0 0 0 0 0 0 0 0 0 0 127 0" result="hardAlpha"/>
<feOffset/>
<feGaussianBlur stdDeviation="5"/>
<feColorMatrix type="matrix" values="0 0 0 0 0 0 0 0 0 0.145098 0 0 0 0 0.180392 0 0 0 0.181839 0"/>
<feBlend mode="normal" in2="BackgroundImageFix" result="effect1_dropShadow_213_123"/>
<feBlend mode="normal" in="SourceGraphic" in2="effect1_dropShadow_213_123" result="shape"/>
</filter>
<filter id="filter2_d_213_123" x="420.739" y="114.897" width="212.783" height="308.988" filterUnits="userSpaceOnUse" color-interpolation-filters="sRGB">
<feFlood flood-opacity="0" result="BackgroundImageFix"/>
<feColorMatrix in="SourceAlpha" type="matrix" values="0 0 0 0 0 0 0 0 0 0 0 0 0 0 0 0 0 0 127 0" result="hardAlpha"/>
<feOffset/>
<feGaussianBlur stdDeviation="4.5"/>
<feColorMatrix type="matrix" values="0 0 0 0 0 0 0 0 0 0.145098 0 0 0 0 0.180392 0 0 0 0.181839 0"/>
<feBlend mode="normal" in2="BackgroundImageFix" result="effect1_dropShadow_213_123"/>
<feBlend mode="normal" in="SourceGraphic" in2="effect1_dropShadow_213_123" result="shape"/>
</filter>
<filter id="filter3_d_213_123" x="420.739" y="114.897" width="212.783" height="49.0391" filterUnits="userSpaceOnUse" color-interpolation-filters="sRGB">
<feFlood flood-opacity="0" result="BackgroundImageFix"/>
<feColorMatrix in="SourceAlpha" type="matrix" values="0 0 0 0 0 0 0 0 0 0 0 0 0 0 0 0 0 0 127 0" result="hardAlpha"/>
<feOffset/>
<feGaussianBlur stdDeviation="4.5"/>
<feColorMatrix type="matrix" values="0 0 0 0 0 0 0 0 0 0.145098 0 0 0 0 0.180392 0 0 0 0.181839 0"/>
<feBlend mode="normal" in2="BackgroundImageFix" result="effect1_dropShadow_213_123"/>
<feBlend mode="normal" in="SourceGraphic" in2="effect1_dropShadow_213_123" result="shape"/>
</filter>
<linearGradient id="paint0_linear_213_123" x1="58.5679" y1="71.9129" x2="90.3775" y2="150.851" gradientUnits="userSpaceOnUse">
<stop stop-color="#FAD961"/>
<stop offset="1" stop-color="#FF52C1"/>
</linearGradient>
<linearGradient id="paint1_linear_213_123" x1="77.3044" y1="161.407" x2="77.3044" y2="212.558" gradientUnits="userSpaceOnUse">
<stop stop-color="#00C7FA"/>
<stop offset="1" stop-color="#007DFA"/>
</linearGradient>
<linearGradient id="paint2_linear_213_123" x1="65.7853" y1="242.679" x2="95.9249" y2="301.329" gradientUnits="userSpaceOnUse">
<stop stop-color="#FF52C1"/>
<stop offset="1" stop-color="#9952FF"/>
</linearGradient>
<linearGradient id="paint3_linear_213_123" x1="451.922" y1="181.465" x2="461.862" y2="206.133" gradientUnits="userSpaceOnUse">
<stop stop-color="#FAD961"/>
<stop offset="1" stop-color="#FF52C1"/>
</linearGradient>
<linearGradient id="paint4_linear_213_123" x1="451.922" y1="259.895" x2="461.862" y2="284.563" gradientUnits="userSpaceOnUse">
<stop stop-color="#FAD961"/>
<stop offset="1" stop-color="#FF52C1"/>
</linearGradient>
<linearGradient id="paint5_linear_213_123" x1="458.348" y1="211.421" x2="458.348" y2="228.471" gradientUnits="userSpaceOnUse">
<stop stop-color="#00C7FA"/>
<stop offset="1" stop-color="#007DFA"/>
</linearGradient>
<linearGradient id="paint6_linear_213_123" x1="458.348" y1="289.851" x2="458.348" y2="306.901" gradientUnits="userSpaceOnUse">
<stop stop-color="#00C7FA"/>
<stop offset="1" stop-color="#007DFA"/>
</linearGradient>
<linearGradient id="paint7_linear_213_123" x1="454.508" y1="237.564" x2="464.555" y2="257.114" gradientUnits="userSpaceOnUse">
<stop stop-color="#FF52C1"/>
<stop offset="1" stop-color="#9952FF"/>
</linearGradient>
<linearGradient id="paint8_linear_213_123" x1="454.508" y1="315.995" x2="464.555" y2="335.545" gradientUnits="userSpaceOnUse">
<stop stop-color="#FF52C1"/>
<stop offset="1" stop-color="#9952FF"/>
</linearGradient>
<linearGradient id="paint9_linear_213_123" x1="451.922" y1="338.325" x2="461.862" y2="362.993" gradientUnits="userSpaceOnUse">
<stop stop-color="#FAD961"/>
<stop offset="1" stop-color="#FF52C1"/>
</linearGradient>
<linearGradient id="paint10_linear_213_123" x1="458.348" y1="368.281" x2="458.348" y2="385.332" gradientUnits="userSpaceOnUse">
<stop stop-color="#00C7FA"/>
<stop offset="1" stop-color="#007DFA"/>
</linearGradient>
<clipPath id="clip0_213_123">
<rect width="630" height="420" fill="white"/>
</clipPath>
</defs>
</svg>
