<svg width="538" height="426" viewBox="0 0 538 426" fill="none" xmlns="http://www.w3.org/2000/svg">
<g clip-path="url(#clip0_39_4477)">
<path opacity="0.1" d="M92.5175 426C143.614 426 185.035 419.173 185.035 410.752C185.035 402.33 143.614 395.503 92.5175 395.503C41.4215 395.503 0 402.33 0 410.752C0 419.173 41.4215 426 92.5175 426Z" fill="#00C7FA"/>
<path opacity="0.1" d="M445.488 422.39C496.584 422.39 538.005 415.563 538.005 407.141C538.005 398.72 496.584 391.893 445.488 391.893C394.392 391.893 352.97 398.72 352.97 407.141C352.97 415.563 394.392 422.39 445.488 422.39Z" fill="#00C7FA"/>
<path opacity="0.1" d="M144.249 0.233933C120.068 1.48472 95.6349 8.31829 76.7687 23.0074C60.2154 35.9017 48.2775 56.1736 51.1897 76.5421C54.6276 100.587 76.8055 118.077 85.0322 141.014C90.3257 155.759 89.5004 172.029 86.0362 187.283C83.8074 197.111 80.38 206.949 73.7934 214.739C61.9291 228.752 40.5186 235.514 34.689 252.725C28.3494 271.441 44.3245 289.796 59.3323 303.108C71.3123 313.729 83.8599 324.3 98.9571 330.122C109.996 334.382 121.976 335.913 133.851 336.523C166.642 338.187 199.426 333.12 230.048 321.656C244.72 316.149 258.913 309.168 274.267 305.848C306.99 298.771 340.659 308.975 373.824 313.755C402.253 317.839 431.143 317.922 459.597 313.999C477.501 311.528 495.999 307.068 509.483 295.415C523.15 283.583 529.984 265.269 529.227 247.524C528.47 229.779 520.732 212.695 509.335 198.763C494.617 180.769 474.316 167.967 456.653 152.632C438.668 137.009 423.369 118.716 411.33 98.4411C404.391 86.7467 398.488 74.3355 389.499 64.0394C375.479 47.9927 355.147 38.4491 334.83 31.0765C287.961 14.0943 239.347 10.6368 190.481 3.1321C175.21 0.777974 159.719 -0.549081 144.249 0.233933V0.233933Z" fill="#00C7FA"/>
<g opacity="0.7">
<path d="M135.906 186.657H236.288V240.914H135.906V186.657Z" fill="#F6F7F9"/>
<path opacity="0.2" d="M154.804 220.85C160.575 220.85 165.254 216.325 165.254 210.743C165.254 205.16 160.575 200.635 154.804 200.635C149.032 200.635 144.354 205.16 144.354 210.743C144.354 216.325 149.032 220.85 154.804 220.85Z" fill="#00C7FA"/>
<path opacity="0.2" d="M177.997 198.763H223.53V201.534H177.997V198.763ZM177.997 205.826H201.194V208.597H177.997V205.826ZM177.997 212.888H215.514V215.659H177.997V212.888ZM177.997 219.951H223.53V222.722H177.997V219.951ZM210.935 230.145H223.535V235.499H210.935V230.145Z" fill="#00C7FA"/>
<path d="M220.418 36.7102H320.8V90.9669H220.418V36.7102Z" fill="#F6F7F9"/>
<path opacity="0.2" d="M239.321 70.9035C245.092 70.9035 249.771 66.378 249.771 60.7955C249.771 55.213 245.092 50.6875 239.321 50.6875C233.549 50.6875 228.871 55.213 228.871 60.7955C228.871 66.378 233.549 70.9035 239.321 70.9035Z" fill="#00C7FA"/>
<path opacity="0.2" d="M262.513 48.8164H308.047V51.5875H262.513V48.8164ZM262.513 55.8788H285.711V58.6498H262.513V55.8788ZM262.513 62.9412H300.03V65.7122H262.513V62.9412ZM262.513 70.0086H308.047V72.7797H262.513V70.0086ZM295.446 80.198H308.047V85.5519H295.446V80.198Z" fill="#00C7FA"/>
<path d="M253.829 127.804H354.211V182.061H253.829V127.804Z" fill="#F6F7F9"/>
<path opacity="0.2" d="M272.727 162.003C278.499 162.003 283.177 157.477 283.177 151.895C283.177 146.312 278.499 141.787 272.727 141.787C266.956 141.787 262.277 146.312 262.277 151.895C262.277 157.477 266.956 162.003 272.727 162.003Z" fill="#00C7FA"/>
<path opacity="0.2" d="M295.925 139.916H341.458V142.687H295.925V139.916ZM295.925 146.978H319.123V149.749H295.925V146.978ZM295.925 154.04H333.442V156.811H295.925V154.04ZM295.925 161.103H341.458V163.874H295.925V161.103ZM328.858 171.297H341.458V176.651H328.858V171.297Z" fill="#00C7FA"/>
</g>
<path d="M100.865 69.0017H269.662V161.255H100.865V69.0017Z" fill="url(#paint0_linear_39_4477)"/>
<path d="M102.059 70.1458H268.485V160.106H102.059V70.1458Z" fill="#F6F7F9"/>
<path opacity="0.2" d="M133.388 126.843C142.957 126.843 150.714 119.34 150.714 110.085C150.714 100.829 142.957 93.3262 133.388 93.3262C123.819 93.3262 116.062 100.829 116.062 110.085C116.062 119.34 123.819 126.843 133.388 126.843Z" fill="#00C7FA"/>
<path opacity="0.2" d="M171.852 90.2195H247.348V94.8108H171.852V90.2195ZM171.852 101.934H210.309V106.525H171.852V101.934ZM171.852 113.644H234.054V118.235H171.852V113.644ZM171.852 125.353H247.348V129.945H171.852V125.353Z" fill="#00C7FA"/>
<path d="M226.453 142.254H247.343V151.132H226.453V142.254Z" fill="#00C7FA"/>
<path d="M219.267 193.628H379.816V280.405H219.267V193.628Z" fill="url(#paint1_linear_39_4477)"/>
<path d="M220.375 194.223H378.707V279.805H220.375V194.223Z" fill="#F6F7F9"/>
<path opacity="0.2" d="M250.186 248.164C259.291 248.164 266.671 241.026 266.671 232.219C266.671 223.413 259.291 216.274 250.186 216.274C241.082 216.274 233.701 223.413 233.701 232.219C233.701 241.026 241.082 248.164 250.186 248.164Z" fill="#00C7FA"/>
<path opacity="0.2" d="M286.773 213.32H358.595V217.688H286.773V213.32ZM286.773 224.466H323.359V228.833H286.773V224.466ZM286.773 235.606H345.947V239.973H286.773V235.606ZM286.773 246.746H358.595V251.113H286.773V246.746Z" fill="#00C7FA"/>
<path opacity="0.5" d="M338.719 262.823H358.595V271.268H338.719V262.823Z" fill="#00C7FA"/>
<path opacity="0.1" d="M43.5566 146.393L43.9456 146.474C43.832 146.399 43.6923 146.37 43.5566 146.393V146.393Z" fill="url(#paint2_linear_39_4477)"/>
<path d="M124.888 205.46C123.726 197.914 116.64 180.312 116.64 180.312C116.514 179.803 116.377 179.264 116.22 178.746C111.189 162.023 104.229 160.543 104.229 160.543L79.2968 155.403C79.5025 155.527 79.6811 155.69 79.8224 155.881L79.4282 155.942C78.2839 154.636 77.5281 153.055 77.2414 151.366C77.1941 151.117 77.152 150.857 77.1205 150.593C78.9124 148.905 80.3101 146.866 81.2198 144.612C82.1295 142.358 82.5301 139.943 82.3946 137.527C82.2592 135.111 81.5909 132.751 80.4346 130.606C79.2783 128.461 77.6608 126.58 75.6907 125.089C75.4331 124.891 75.165 124.703 74.8917 124.514C76.0692 123.309 76.106 121.626 75.2281 119.938C73.2621 115.988 68.9937 113.491 64.5991 112.276C61.2453 111.346 57.6077 111.046 54.2855 112.063C52.3878 112.642 50.6636 113.623 48.8869 114.483C45.5752 116.084 41.927 117.35 39.4249 119.979C38.8414 120.594 38.3104 121.377 38.4786 122.186C38.6101 122.791 39.0989 123.253 39.4196 123.792C40.1292 124.992 39.9453 126.503 39.4669 127.809C38.9885 129.116 38.2631 130.351 37.9214 131.673C37.5798 132.995 37.7164 134.592 38.7573 135.548C39.2629 135.931 39.7893 136.287 40.3343 136.616C40.9054 137.083 41.4061 137.626 41.8219 138.227L44.7761 142.086C46.1552 143.797 47.3859 145.615 48.4558 147.522C49.1865 148.92 49.7595 150.42 50.7425 151.671C51.0317 152.043 51.3612 152.384 51.7255 152.688C51.6309 152.652 51.531 152.622 51.4364 152.581C51.8717 152.991 52.3889 153.312 52.9565 153.522C53.5241 153.733 54.1301 153.83 54.7376 153.806H54.8847C55.1101 153.803 55.3259 153.717 55.4893 153.567V154.076C55.5418 155.932 55.5366 157.904 55.3999 159.755L55.1686 159.643C54.8262 159.477 54.4416 159.409 54.0605 159.448C53.6794 159.487 53.3178 159.63 53.0186 159.862L30.0522 177.658C30.0522 177.658 25.0636 184.268 25.7575 195.657L21.7361 212.751C21.7361 212.751 16.7055 227.257 20.5744 237.614C24.4433 247.971 26.6879 253.885 26.6879 253.885C26.6879 253.885 28.2334 265.65 30.5568 266.596C32.8803 267.541 33.8843 268.08 33.8843 268.08L34.3469 270.892C34.3469 270.892 34.4993 271.162 34.7727 271.629C36.4653 274.472 42.726 284.508 46.3689 283.441C46.8239 286.165 47.0228 288.924 46.9629 291.683L50.5585 315.071C50.5585 315.071 53.0712 321.432 52.9187 324.763C52.7663 328.093 55.8572 332.832 55.8572 332.832C53.9808 336.151 53.4308 340.021 54.3118 343.707C55.7836 349.926 57.6392 378.633 57.6392 378.633L60.3464 385.588L60.2676 393.724C60.0434 395.045 59.4714 396.288 58.6065 397.334C56.8613 399.164 56.9769 401.279 52.8241 403.776C48.6713 406.272 45.9904 407.213 45.9904 410.543C45.9856 411.003 45.9435 411.462 45.8643 411.916C45.4753 414.351 44.7236 415.663 52.4351 416.375C61.4871 417.204 67.5218 411.489 67.5218 411.489C67.5218 411.489 68.8517 409.155 75.123 408.214C75.123 408.214 77.2624 408.103 77.3833 406.267C77.4254 405.637 77.4149 404.427 77.357 403.094C77.2572 400.552 77.0048 397.593 76.6737 397.445C76.2584 397.268 75.5225 394.71 75.2701 393.785H77.0154C77.0154 393.785 78.6397 382.019 77.0154 374.392C75.391 366.766 76.8629 361.371 76.8629 361.371L76.5528 341.246C76.5528 341.246 74.3607 339.096 76.0797 335.181C77.7986 331.266 76.0797 311.873 76.0797 311.873C76.0797 311.873 76.7052 304.918 78.482 303.291C80.2587 301.664 78.5713 293.096 78.482 292.649L81.636 302.919C81.636 302.919 83.029 323.344 85.9727 327.045L86.8243 336.289C86.8243 336.289 92.859 344.801 91.6973 349.392C90.5355 353.983 92.9378 370.554 92.9378 370.554V387.5C92.9378 387.5 90.2254 394.308 94.0207 396.749L95.6555 396.688C95.0983 397.196 94.6988 397.903 94.0785 398.528C93.3531 399.25 92.9431 401.996 92.7118 404.355C92.5173 406.354 92.4542 408.072 92.4542 408.072C92.4542 408.072 94.0785 410.569 97.0959 410.736C100.113 410.904 110.096 418.287 110.096 418.287C110.096 418.287 119.968 418.287 122.517 417.778L122.67 417.743C123.489 417.49 124.177 416.945 124.594 416.217C125.108 415.376 125.275 414.377 125.061 413.421C124.741 411.962 123.547 410.37 120.893 409.003C114.275 405.621 113.292 402.459 113.292 402.459L108.955 396.174H109.575C109.575 396.174 109.191 389.514 113.907 382.039L113.602 349.112C113.602 349.112 115.531 337.789 112.209 331.647C112.209 331.647 111.935 325.134 114.159 323.135C116.383 321.137 111.2 300.937 111.2 300.937C111.2 300.937 110.148 290.096 108.866 280.202C114.085 284.992 119.505 267.74 120.43 264.674H120.567C120.567 264.674 120.541 264.593 120.504 264.45C120.467 264.308 120.567 264.232 120.567 264.232C120.567 264.206 119.41 260.24 120.257 261.049C121.103 261.857 123.201 258.832 123.201 258.832C123.201 258.832 122.89 242.327 126.528 234.009C130.166 225.691 124.888 205.46 124.888 205.46V205.46ZM109.333 215.959L109.36 215.913C109.885 225.991 109.255 247.493 109.255 247.493C109.255 247.493 108.54 250.249 107.772 253.493L107.22 233.063L106.695 213.824L109.333 215.959ZM42.7155 209.014C42.7155 209.014 45.3439 240.833 42.7155 245.419C41.9638 246.726 41.3383 249.049 40.8179 251.708C39.9505 249.502 38.1107 244.321 38.7678 241.575C39.6194 238.016 37.0646 228.696 37.0646 228.477C37.0646 228.259 36.8333 223.296 38.6889 219.483C40.5445 215.669 39.3092 214.042 39.3092 214.042C39.3092 214.042 40.8599 207.829 42.7155 209.014V209.014Z" fill="url(#paint3_linear_39_4477)"/>
<path d="M49.1184 280.675C46.8317 290.417 37.7167 275.682 35.6403 272.148L35.2197 271.416L36.208 266.936L41.4331 264.877C42.2585 265.295 43.0401 265.788 43.7671 266.352C46.6425 268.507 50.8846 273.129 49.1184 280.675ZM119.821 264.73L119.763 264.948C119.763 265.014 119.716 265.091 119.689 265.187C118.796 268.238 113.481 285.352 108.351 280.598C102.736 275.382 105.465 263.403 105.465 263.403H105.517L117.329 262.233L119.668 264.562L119.821 264.73Z" fill="#EFB7B9"/>
<path d="M112.987 348.985L113.287 381.668C108.661 389.092 109.034 395.702 109.034 395.702L93.7899 396.286C90.0681 393.866 92.7385 387.109 92.7385 387.109V370.284C92.7385 370.284 90.3572 353.841 91.4927 349.265C92.6281 344.689 86.7091 336.264 86.7091 336.264L85.8786 327.086C82.9874 323.415 81.6206 303.138 81.6206 303.138L78.5139 292.969C78.5928 293.411 80.2066 301.959 78.5139 303.53C76.8213 305.101 76.159 312.051 76.159 312.051C76.159 312.051 77.8306 331.296 76.159 335.186C74.4873 339.075 76.611 341.287 76.611 341.287L76.9212 361.264C76.9212 361.264 75.4756 366.628 77.0684 374.194C78.6611 381.76 77.0684 393.439 77.0684 393.439H60.6675L60.7411 385.304L58.0865 378.399C58.0865 378.399 56.2624 349.9 54.8221 343.733C53.9564 340.074 54.4944 336.237 56.336 332.933C56.336 332.933 53.3029 328.23 53.4554 324.925C53.6078 321.62 51.1372 315.305 51.1372 315.305L47.6047 292.095C47.7042 287.629 47.116 283.173 45.8595 278.875C43.8041 272.265 40.771 263.596 40.771 263.596L44.1984 263.891L61.5033 265.381C61.5033 265.381 103.557 262.645 105.454 264.918C105.854 265.66 106.124 266.46 106.253 267.287C108.141 275.499 110.638 301.206 110.638 301.206C110.638 301.206 115.726 321.259 113.539 323.242C111.352 325.225 111.626 331.688 111.626 331.688C114.885 337.748 112.987 348.985 112.987 348.985V348.985Z" fill="#444053"/>
<path d="M77.4255 405.815C77.3046 407.635 75.2019 407.747 75.2019 407.747C69.0516 408.682 67.7479 411.001 67.7479 411.001C67.7479 411.001 61.8237 416.67 52.9504 415.872C45.386 415.17 46.1167 413.838 46.5057 411.448C46.5831 410.998 46.6236 410.542 46.6266 410.086C46.6266 406.781 49.2549 405.84 53.3499 403.364C57.4448 400.888 57.3345 398.788 59.0429 396.973C60.7513 395.157 60.9248 391.634 60.9248 391.634C62.8592 388.38 67.7584 392.142 67.7584 392.142C67.9845 393.296 75.2755 393.159 75.2755 393.159C75.2755 393.159 76.2427 396.906 76.7368 397.125C77.0628 397.273 77.3098 400.211 77.4097 402.718C77.457 403.989 77.4623 405.194 77.4255 405.815V405.815Z" fill="#B07473"/>
<path opacity="0.1" d="M77.4255 405.814C77.3046 407.635 75.2019 407.747 75.2019 407.747C69.0516 408.682 67.7479 411.001 67.7479 411.001C67.7479 411.001 61.8237 416.67 52.9504 415.872C45.386 415.17 46.1167 413.838 46.5057 411.448C49.8857 412.262 56.3515 413.39 60.1257 411.407C65.3824 408.652 69.1304 406.725 69.1304 406.725L77.3992 402.652C77.457 403.989 77.4623 405.194 77.4255 405.814V405.814Z" fill="black"/>
<path d="M123.779 415.623C123.376 416.348 122.697 416.895 121.887 417.148C121.839 417.164 121.79 417.176 121.74 417.183C119.232 417.692 109.549 417.692 109.549 417.692C109.549 417.692 99.7352 410.34 96.7914 410.172C93.8477 410.004 92.2339 407.528 92.2339 407.528C92.2339 407.528 92.2917 405.82 92.4809 403.837C92.7122 401.493 93.117 398.752 93.8267 398.05C95.1408 396.729 95.4037 394.913 98.3842 396.068C98.3842 396.068 102.59 388.893 107.552 394.435L112.682 401.966C112.682 401.966 113.65 405.103 120.147 408.464C122.749 409.811 123.921 411.397 124.231 412.846C124.445 413.794 124.283 414.784 123.779 415.623V415.623Z" fill="#B07473"/>
<path opacity="0.1" d="M123.779 415.623C123.201 416.095 122.554 416.604 121.887 417.148C121.839 417.165 121.79 417.176 121.74 417.183C119.232 417.692 109.549 417.692 109.549 417.692C109.549 417.692 99.7352 410.34 96.7914 410.172C93.8477 410.004 92.2339 407.528 92.2339 407.528C92.2339 407.528 92.2917 405.82 92.4809 403.837C95.493 404.711 100.066 406.252 101.291 407.904C103.168 410.447 108.871 413.96 108.871 413.96C108.871 413.96 119.506 412.974 124.231 412.836C124.447 413.787 124.286 414.782 123.779 415.623V415.623Z" fill="black"/>
<path d="M82.3881 159.287L68.3738 173.61C68.3738 173.61 51.4 172.4 54.3647 167.55C55.8734 165.084 56.1099 159.923 55.9785 155.418C55.8524 151.081 55.3898 147.39 55.3898 147.39C55.3898 147.39 79.1973 135.929 77.3732 146.617C76.9861 148.631 76.9629 150.696 77.3049 152.718C78.3404 158.118 82.3881 159.287 82.3881 159.287V159.287Z" fill="#EFB7B9"/>
<path opacity="0.1" d="M77.3677 146.617C76.9806 148.631 76.9574 150.696 77.2994 152.718C75.6713 154.314 73.7314 155.58 71.5926 156.443C69.4537 157.306 67.1587 157.75 64.841 157.747C61.6029 157.747 58.1388 155.204 55.5367 153.705C55.4106 149.367 55.3843 147.39 55.3843 147.39C55.3843 147.39 79.1918 135.929 77.3677 146.617Z" fill="black"/>
<path d="M82.388 139.895C82.3894 143.74 81.0406 147.472 78.5627 150.479C76.0847 153.486 72.6245 155.59 68.7488 156.447C64.873 157.303 60.8115 156.861 57.2295 155.193C53.6475 153.525 50.7573 150.729 49.0323 147.265C47.3073 143.8 46.8497 139.872 47.7346 136.123C48.6195 132.374 50.7944 129.027 53.903 126.63C57.0115 124.233 60.8696 122.928 64.8452 122.929C68.8207 122.93 72.6782 124.236 75.7856 126.635C77.8446 128.224 79.5073 130.241 80.6502 132.537C81.7932 134.832 82.3871 137.347 82.388 139.895V139.895Z" fill="#EFB7B9"/>
<path opacity="0.1" d="M106.248 267.247C101.88 277.304 73.7774 277.512 73.7774 277.512V266.55L72.0742 266.443C72.8102 269.58 71.0229 277.238 71.0229 277.238C48.8134 280.288 43.4043 268.04 43.4043 268.04L44.1718 263.85L61.4768 265.34C61.4768 265.34 103.53 262.604 105.428 264.877C105.835 265.618 106.112 266.418 106.248 267.247V267.247Z" fill="black"/>
<path d="M73.7774 276.19V265.223L72.0742 265.121C72.8102 268.258 71.0229 275.916 71.0229 275.916C54.3119 278.193 47.105 271.848 44.566 268.543C44.1119 267.975 43.7224 267.361 43.4043 266.713L50.1802 229.804L51.7572 175.487L54.2015 165.958L54.7692 161.382V161.331L54.8271 161.357L56.5513 162.074L66.8964 166.395L78.7081 157.818L78.8816 157.691L79.4651 157.264L80.4376 158.021L82.8504 159.892L90.5988 208.266C90.5988 208.266 104.035 245.515 106.526 260.55C106.626 261.15 106.71 261.71 106.774 262.233C108.408 275.936 73.7774 276.19 73.7774 276.19V276.19Z" fill="#E1E7EF"/>
<path d="M68.1951 168.409C68.7467 168.409 69.1938 167.976 69.1938 167.443C69.1938 166.909 68.7467 166.477 68.1951 166.477C67.6434 166.477 67.1963 166.909 67.1963 167.443C67.1963 167.976 67.6434 168.409 68.1951 168.409Z" fill="#67647E"/>
<path d="M68.6575 177.22C69.2091 177.22 69.6562 176.788 69.6562 176.254C69.6562 175.721 69.2091 175.288 68.6575 175.288C68.1059 175.288 67.6587 175.721 67.6587 176.254C67.6587 176.788 68.1059 177.22 68.6575 177.22Z" fill="#67647E"/>
<path d="M69.6511 191.493C70.2027 191.493 70.6499 191.06 70.6499 190.527C70.6499 189.993 70.2027 189.561 69.6511 189.561C69.0995 189.561 68.6523 189.993 68.6523 190.527C68.6523 191.06 69.0995 191.493 69.6511 191.493Z" fill="#67647E"/>
<path d="M71.3069 206.858C71.8585 206.858 72.3056 206.425 72.3056 205.892C72.3056 205.358 71.8585 204.926 71.3069 204.926C70.7553 204.926 70.3081 205.358 70.3081 205.892C70.3081 206.425 70.7553 206.858 71.3069 206.858Z" fill="#67647E"/>
<path d="M72.3005 221.293C72.8521 221.293 73.2993 220.86 73.2993 220.327C73.2993 219.793 72.8521 219.361 72.3005 219.361C71.7489 219.361 71.3018 219.793 71.3018 220.327C71.3018 220.86 71.7489 221.293 72.3005 221.293Z" fill="#67647E"/>
<path d="M73.2991 236.663C73.8507 236.663 74.2978 236.231 74.2978 235.697C74.2978 235.164 73.8507 234.731 73.2991 234.731C72.7475 234.731 72.3003 235.164 72.3003 235.697C72.3003 236.231 72.7475 236.663 73.2991 236.663Z" fill="#67647E"/>
<path d="M72.8996 251.871C73.4512 251.871 73.8984 251.439 73.8984 250.905C73.8984 250.371 73.4512 249.939 72.8996 249.939C72.348 249.939 71.9009 250.371 71.9009 250.905C71.9009 251.439 72.348 251.871 72.8996 251.871Z" fill="#67647E"/>
<path opacity="0.1" d="M55.4739 235.173C55.4739 235.173 54.3595 249.308 52.3199 253.417C50.2803 257.525 49.3551 269.062 49.3551 269.062L44.6241 268.553C44.17 267.985 43.7805 267.372 43.4624 266.723L50.2383 229.814L51.8153 175.497L54.2596 165.968L54.8273 161.392C54.8458 161.379 54.8675 161.37 54.8904 161.367C55.1558 161.246 55.4464 161.185 55.7398 161.189C56.0332 161.194 56.3217 161.263 56.5831 161.392L56.8144 161.504C56.746 161.692 56.6777 161.885 56.6146 162.084C54.7643 167.702 54.0704 178.064 54.0704 178.064C54.0704 178.064 56.7303 197.014 57.0299 205.831C57.3295 214.647 55.4739 235.173 55.4739 235.173V235.173Z" fill="black"/>
<path opacity="0.1" d="M43.7671 266.352C43.7149 266.469 43.6552 266.583 43.5884 266.692C41.7433 269.707 37.0648 271.624 35.6403 272.148L35.2197 271.416L36.208 266.936L41.4331 264.877C42.2585 265.295 43.0401 265.788 43.7671 266.352V266.352Z" fill="black"/>
<path d="M31.1196 194.218L26.7934 196.73L22.8404 213.697C22.8404 213.697 17.9044 228.096 21.7049 238.377C25.5055 248.658 27.7186 254.52 27.7186 254.52C27.7186 254.52 29.2378 266.214 31.5139 267.155C33.79 268.096 34.7835 268.624 34.7835 268.624L35.2356 271.416C35.2356 271.416 41.4175 269.382 43.6043 265.823C45.791 262.264 41.9957 253.361 41.9957 253.361C41.9957 253.361 38.7313 245.795 39.5671 242.271C40.4029 238.748 37.8955 229.489 37.8955 229.27C37.8955 229.052 37.6695 224.125 39.4725 220.342C41.2755 216.559 40.0823 214.947 40.0823 214.947L38.9416 204.148L31.1196 194.218Z" fill="#67647E"/>
<path opacity="0.1" d="M106.606 264.069C106.606 264.069 95.1408 268.258 91.4926 264.577C87.8445 260.896 88.2282 243.731 88.2282 243.731C88.2282 243.731 84.7378 211.998 82.53 206.787C80.3222 201.575 81.4787 163.96 81.4787 163.96C81.4787 163.96 79.9858 159.104 78.7084 157.818C78.6281 157.733 78.5361 157.66 78.4351 157.599L78.8819 157.691L80.4589 158.021L82.8717 159.892L90.62 208.266C90.62 208.266 104.056 245.515 106.548 260.55L106.606 264.069Z" fill="black"/>
<path opacity="0.1" d="M119.82 265.172H119.689C118.249 265.35 105.496 266.84 105.449 264.277C105.449 263.98 105.466 263.683 105.501 263.387L117.313 262.218L119.652 264.547C119.694 264.699 119.731 264.831 119.763 264.933L119.82 265.172Z" fill="black"/>
<path d="M107.62 177.22L116.004 181.446C116.004 181.446 122.959 198.916 124.099 206.411C124.099 206.411 129.262 226.479 125.676 234.731C122.091 242.983 122.412 259.371 122.412 259.371C122.412 259.371 120.362 262.381 119.526 261.572C118.69 260.764 119.831 264.73 119.831 264.73C119.831 264.73 105.517 266.57 105.449 263.845C105.38 261.12 108.734 248.124 108.734 248.124C108.734 248.124 109.644 217.2 108.35 212.354C107.057 207.509 107.62 177.22 107.62 177.22V177.22Z" fill="#67647E"/>
<path opacity="0.1" d="M82.6086 210.158C82.6086 210.158 77.8776 221.318 76.3794 222.056C74.8813 222.793 76.6843 225.727 76.6843 225.727C76.6843 225.727 85.2685 214.124 82.6086 210.158V210.158ZM79.8015 171.002C79.8541 170.789 74.1769 176.387 72.6629 177.22C71.149 178.054 78.1825 177.175 79.8015 171.002ZM63.9894 209.273C63.9894 209.273 55.3317 214.693 56.4671 216.829C57.6026 218.964 63.9894 209.273 63.9894 209.273ZM79.7227 288.312C79.7227 288.312 87.082 292.888 98.5573 294.042L79.7227 288.312ZM62.0287 299.33C62.0287 299.33 68.8624 307.628 71.9796 307.851C75.0968 308.075 62.0287 299.33 62.0287 299.33ZM71.5958 331.871C71.291 332.018 67.7217 339.36 64.0788 339.584C60.4359 339.808 71.5958 331.871 71.5958 331.871ZM103.267 347.953C103.267 347.953 110.038 346.489 111.541 351.187C111.541 351.187 111.089 349.717 103.267 347.953ZM98.7098 374.84C98.7098 374.84 106.91 373.223 108.655 375.43C110.401 377.636 98.7098 374.84 98.7098 374.84V374.84ZM75.4963 378.587C75.4963 378.658 67.1434 380.204 67.4746 381.231C67.8058 382.258 76.3794 382.111 76.6843 380.494C76.743 380.293 76.7585 380.083 76.7298 379.876C76.7011 379.669 76.6288 379.47 76.5175 379.291C76.4061 379.113 76.258 378.958 76.0824 378.837C75.9067 378.716 75.7073 378.631 75.4963 378.587ZM95.9763 385.563C95.9763 385.563 109.696 383.946 108.834 386.738C107.972 389.529 95.9763 385.563 95.9763 385.563ZM24.1333 222.056C24.2122 222.274 33.1695 223.449 34.3838 226.24C34.3838 226.24 25.5789 222.274 24.2122 222.274M36.7388 244.753C36.7388 244.753 29.2954 247.031 29.821 250.483C30.3467 253.935 29.0693 248.871 36.7388 244.753ZM33.2694 262.233C33.2694 262.233 35.9819 258.633 38.5629 259.294C41.1439 259.955 33.2694 262.233 33.2694 262.233ZM75.7802 126.635C75.5178 126.879 75.2246 127.091 74.9076 127.265C72.7471 128.475 72.1688 130.316 71.1333 132.487C70.1871 134.455 69.141 136.555 67.2223 137.653C64.7517 139.092 61.4925 138.563 58.922 139.824C57.7828 140.401 56.8473 141.294 56.235 142.388C55.6226 143.482 55.3612 144.728 55.4841 145.966C55.6512 146.921 55.8973 147.861 56.2201 148.778C56.8 150.761 57.0641 152.819 57.0033 154.879C57.0111 154.942 57.0111 155.005 57.0033 155.067C54.8012 154.005 52.8548 152.506 51.2906 150.668C49.7265 148.83 48.5794 146.695 47.924 144.4C47.2686 142.106 47.1195 139.704 47.4865 137.35C47.8534 134.996 48.7281 132.744 50.0537 130.738C51.3794 128.733 53.1264 127.019 55.1813 125.709C57.2361 124.399 59.5529 123.522 61.981 123.135C64.4092 122.747 66.8945 122.858 69.2754 123.46C71.6564 124.062 73.8798 125.142 75.8012 126.63L75.7802 126.635Z" fill="black"/>
<path d="M75.3229 121.53C73.3937 117.61 69.2042 115.134 64.8937 113.903C61.603 112.983 58.0337 112.683 54.7693 113.695C52.9085 114.269 51.2106 115.22 49.4706 116.095C46.2167 117.686 42.6369 118.942 40.1926 121.555C39.6248 122.16 39.0992 122.943 39.2674 123.747C39.3935 124.347 39.8772 124.804 40.1873 125.338C40.8864 126.528 40.713 128.028 40.2346 129.324C39.7563 130.621 39.0571 131.831 38.7207 133.163C38.3843 134.495 38.5157 136.056 39.5355 137.007C40.0282 137.385 40.5405 137.738 41.0704 138.065C41.6275 138.533 42.1173 139.072 42.5265 139.666L45.423 143.495C46.7852 145.194 47.9984 147 49.0501 148.895C49.7755 150.283 50.3327 151.767 51.2947 153.008C52.2566 154.249 53.7653 155.245 55.3633 155.108C55.4868 155.112 55.6095 155.087 55.7211 155.036C55.8327 154.985 55.9299 154.908 56.0046 154.813C56.0675 154.692 56.0965 154.557 56.0888 154.422C56.1541 152.361 55.89 150.303 55.3055 148.32C54.9827 147.403 54.7366 146.463 54.5696 145.508C54.4474 144.27 54.7091 143.025 55.3213 141.931C55.9336 140.837 56.8687 139.944 58.0074 139.366C60.5832 138.11 63.8424 138.639 66.313 137.2C68.2317 136.077 69.2778 133.997 70.224 132.029C71.2753 129.879 71.8378 128.018 73.9983 126.808C76.1588 125.597 76.39 123.589 75.3229 121.53Z" fill="#585268"/>
<path opacity="0.1" d="M67.4644 398.879C67.4644 398.879 70.1348 402.184 69.4514 404.055C68.768 405.926 67.4644 398.879 67.4644 398.879ZM103.772 407.141C103.772 407.141 104.366 402.708 106.758 402.667C109.15 402.626 109.265 402.428 111.09 403.104C112.914 403.781 114.622 404.838 114.081 405.001C113.539 405.164 110.927 402.459 108.298 403.837C106.628 404.715 105.103 405.829 103.772 407.141V407.141ZM59.4585 171.932L66.944 166.848C66.944 166.848 55.9523 160.563 54.6434 161.448C53.3344 162.333 52.4355 170.265 52.4355 170.265L59.4585 171.932Z" fill="black"/>
<path d="M59.4269 171.602L66.944 166.395C66.944 166.395 55.9523 160.116 54.6434 160.996C53.3344 161.875 52.4355 170.254 52.4355 170.254L59.4269 171.602Z" fill="#E1E7EF"/>
<path opacity="0.03" d="M59.4269 171.602L66.944 166.395C66.944 166.395 55.9523 160.116 54.6434 160.996C53.3344 161.875 52.4355 170.254 52.4355 170.254L59.4269 171.602Z" fill="black"/>
<path d="M55.8837 161.057L55.6577 160.945C55.3234 160.78 54.9468 160.712 54.5736 160.75C54.2004 160.788 53.8466 160.93 53.555 161.158L31.0144 178.847C31.0144 178.847 26.1151 185.401 26.809 196.714L40.0979 214.932C40.0979 214.932 41.6171 208.76 43.4411 209.934C43.4411 209.934 46.0222 241.519 43.4411 246.075C40.8601 250.63 39.7194 267.669 39.7194 267.669L48.4508 268.625C48.4508 268.625 49.3602 257.093 51.4103 252.979C53.4604 248.866 54.5643 234.731 54.5643 234.731C54.5643 234.731 56.4094 214.195 56.1045 205.373C55.7996 196.552 53.145 177.612 53.145 177.612C53.145 177.612 53.8862 166.507 55.8837 161.057V161.057Z" fill="#67647E"/>
<path opacity="0.1" d="M78.3348 168.709L68.9727 165.353C68.9727 165.353 80.9001 152.723 82.3824 159.73L78.3348 168.709Z" fill="black"/>
<path d="M78.3348 168.256L68.9727 164.906C68.9727 164.906 80.9001 152.271 82.3824 159.277L78.3348 168.256Z" fill="#E1E7EF"/>
<path opacity="0.03" d="M78.3348 168.256L68.9727 164.906C68.9727 164.906 80.9001 152.271 82.3824 159.277L78.3348 168.256Z" fill="black"/>
<path opacity="0.1" d="M78.0352 157.523C78.1685 157.5 78.3059 157.527 78.4189 157.599L78.0352 157.523Z" fill="black"/>
<path d="M78.9448 156.638L103.798 161.824C103.798 161.824 110.632 163.294 115.568 179.89C120.504 196.486 108.808 216.829 108.808 216.829L106.227 214.708L107.52 263.189C107.52 263.189 96.0501 267.374 92.4072 263.698C88.7643 260.021 89.1375 242.851 89.1375 242.851C89.1375 242.851 85.6471 211.109 83.4393 205.882C81.2315 200.655 82.388 163.055 82.388 163.055C82.388 163.055 80.3326 156.348 78.9448 156.638V156.638Z" fill="#67647E"/>
<path opacity="0.1" d="M101.669 187.532C101.317 187.847 100.912 202.516 102.432 213.681C103.364 220.481 104.803 227.207 106.737 233.806L104.482 189.062C104.482 189.062 102.731 186.561 101.669 187.532ZM98.6311 174.897C99.2408 175.263 101.901 181.359 100.681 183.861C99.4616 186.362 98.6311 174.897 98.6311 174.897ZM75.1757 121.53C73.9586 119.205 72.0584 117.281 69.7141 115.998C71.4546 117.198 72.8614 118.797 73.809 120.65C74.8604 122.709 74.566 124.774 72.4791 125.943C70.3922 127.113 69.7403 128.994 68.71 131.165C67.7638 133.133 66.7125 135.232 64.7938 136.331C62.3232 137.775 59.0693 137.246 56.4935 138.497C55.3543 139.076 54.4191 139.969 53.8068 141.064C53.1946 142.159 52.9331 143.405 53.0556 144.644C53.2202 145.599 53.4664 146.54 53.7916 147.456C54.375 149.438 54.6374 151.497 54.5696 153.557C54.5787 153.692 54.5515 153.827 54.4907 153.949C54.416 154.044 54.3187 154.12 54.2072 154.171C54.0956 154.223 53.9729 154.247 53.8494 154.243C53.206 154.292 52.5606 154.177 51.978 153.908C52.4028 154.314 52.9095 154.632 53.4665 154.841C54.0236 155.05 54.6191 155.146 55.2161 155.123C55.3396 155.127 55.4623 155.102 55.5739 155.051C55.6855 155 55.7827 154.923 55.8575 154.828C55.9179 154.706 55.9468 154.572 55.9416 154.437C56.0044 152.376 55.7402 150.318 55.1583 148.335C54.8331 147.419 54.587 146.479 54.4224 145.524C54.3002 144.285 54.5619 143.04 55.1742 141.946C55.7864 140.852 56.7215 139.959 57.8603 139.381C60.436 138.126 63.6899 138.654 66.1605 137.215C68.0792 136.092 69.1306 134.012 70.0768 132.044C71.1281 129.894 71.6853 128.033 73.8458 126.823C76.0063 125.613 76.2376 123.589 75.1757 121.53V121.53Z" fill="black"/>
<path opacity="0.1" d="M508.967 390.164C520.87 390.164 530.52 388.883 530.52 387.302C530.52 385.721 520.87 384.439 508.967 384.439C497.064 384.439 487.415 385.721 487.415 387.302C487.415 388.883 497.064 390.164 508.967 390.164Z" fill="#00C7FA"/>
<path opacity="0.1" d="M340.012 416.197C348.472 416.197 355.33 415.286 355.33 414.163C355.33 413.04 348.472 412.129 340.012 412.129C331.552 412.129 324.694 413.04 324.694 414.163C324.694 415.286 331.552 416.197 340.012 416.197Z" fill="#00C7FA"/>
<path opacity="0.1" d="M202.95 401.122C211.41 401.122 218.268 400.211 218.268 399.088C218.268 397.965 211.41 397.054 202.95 397.054C194.49 397.054 187.632 397.965 187.632 399.088C187.632 400.211 194.49 401.122 202.95 401.122Z" fill="#00C7FA"/>
<path d="M211.387 394.461C212.352 393.7 213.054 392.673 213.4 391.517C213.663 390.352 213.148 388.949 211.991 388.522C210.698 388.044 209.316 388.914 208.27 389.788C207.224 390.663 206.02 391.664 204.653 391.476C205.357 390.857 205.884 390.073 206.183 389.199C206.481 388.325 206.541 387.391 206.356 386.488C206.294 386.115 206.131 385.764 205.883 385.471C205.163 384.729 203.859 385.049 203.002 385.634C200.269 387.49 199.507 391.085 199.491 394.313C199.218 393.149 199.449 391.934 199.438 390.754C199.428 389.575 199.097 388.212 198.051 387.592C197.408 387.247 196.683 387.072 195.948 387.083C194.723 387.037 193.351 387.159 192.515 388.029C191.464 389.107 191.743 390.917 192.647 392.096C193.551 393.276 194.933 394.034 196.206 394.852C197.223 395.439 198.091 396.24 198.745 397.196C198.823 397.33 198.887 397.471 198.934 397.618H206.64C208.361 396.775 209.957 395.713 211.387 394.461V394.461ZM517.709 383.732C518.68 382.973 519.39 381.947 519.744 380.788C520.006 379.624 519.491 378.246 518.335 377.794C517.042 377.316 515.659 378.185 514.613 379.06C513.567 379.934 512.363 380.936 510.991 380.748C511.698 380.13 512.226 379.346 512.525 378.472C512.823 377.597 512.882 376.663 512.694 375.76C512.638 375.385 512.474 375.033 512.221 374.743C511.506 374.001 510.203 374.321 509.346 374.906C506.612 376.762 505.85 380.356 505.834 383.585C505.556 382.421 505.792 381.205 505.782 380.026C505.771 378.846 505.435 377.484 504.394 376.863C503.751 376.519 503.026 376.344 502.291 376.355C501.061 376.309 499.695 376.431 498.854 377.301C497.802 378.378 498.081 380.189 498.99 381.368C499.9 382.548 501.277 383.305 502.549 384.124C503.567 384.711 504.434 385.512 505.088 386.468C505.165 386.603 505.228 386.744 505.277 386.89H512.978C514.694 386.046 516.285 384.984 517.709 383.732V383.732ZM344.171 407.502C345.135 406.741 345.839 405.714 346.189 404.559C346.447 403.389 345.932 402.016 344.78 401.564C343.487 401.086 342.105 401.95 341.059 402.83C340.013 403.709 338.809 404.701 337.437 404.518C338.142 403.9 338.67 403.115 338.969 402.241C339.267 401.367 339.326 400.433 339.14 399.53C339.08 399.156 338.917 398.804 338.667 398.513C337.947 397.771 336.648 398.091 335.786 398.676C333.053 400.537 332.29 404.126 332.275 407.36C332.001 406.196 332.233 404.981 332.227 403.801C332.222 402.621 331.88 401.259 330.84 400.638C330.196 400.296 329.472 400.12 328.737 400.13C327.507 400.089 326.14 400.206 325.299 401.076C324.248 402.159 324.526 403.969 325.436 405.143C326.345 406.318 327.722 407.075 328.989 407.899C330.02 408.493 330.898 409.307 331.555 410.279C331.63 410.412 331.694 410.551 331.744 410.696H339.44C341.158 409.842 342.75 408.768 344.171 407.502V407.502Z" fill="#00C7FA"/>
<path d="M498.643 175.497C491.746 175.365 485.659 170.636 482.211 164.901C481.307 163.531 480.739 161.98 480.55 160.365C480.574 159.997 480.637 159.633 480.739 159.277C480.96 158.739 481.136 158.185 481.264 157.62C481.293 157.393 481.293 157.165 481.264 156.938V156.908C481.433 155.677 480.686 154.493 479.751 153.644C478.815 152.795 477.674 152.179 476.712 151.361C473.747 148.844 472.849 144.807 472.791 140.963V140.759C472.822 139.117 472.959 137.465 472.943 135.817C472.967 134.882 472.925 133.946 472.817 133.016C472.533 130.687 471.618 128.318 469.726 126.833C464.79 122.964 456.49 126.991 451.386 123.33C450.14 122.44 449.136 121.113 447.632 120.788C446.492 120.523 445.309 120.879 444.2 121.235C440.436 122.435 436.241 124.016 434.769 127.555C433.928 129.589 434.165 131.872 433.392 133.916C432.866 135.283 431.936 136.458 431.242 137.76C430.67 138.736 430.391 139.847 430.438 140.968C430.379 141.548 430.464 142.134 430.685 142.676C430.945 143.324 431.363 143.902 431.904 144.359C431.706 144.763 431.459 145.142 431.168 145.488C430.206 146.627 428.729 147.441 427.73 148.539C425.88 150.613 425.948 153.435 426.863 155.876C427.778 158.316 429.418 160.538 430.543 162.913C431.032 163.93 431.426 165.099 430.916 166.126C430.564 166.838 429.828 167.377 429.255 167.992C428.416 168.903 427.89 170.044 427.751 171.256C416.486 173.743 416.481 182.493 416.481 182.493L410.404 197.309C410.404 197.309 409.432 199.801 408.302 203.09L401.1 201.845L406.073 209.949C405.121 213.249 404.454 216.31 404.675 217.846C404.675 217.846 402.441 228.015 406.415 229.789L415.193 233.608C415.572 233.83 415.981 234.001 416.408 234.116L416.765 234.269C416.893 234.329 417.033 234.361 417.175 234.361C417.317 234.361 417.457 234.329 417.585 234.269H417.727C417.906 234.286 418.086 234.262 418.253 234.197C418.45 234.098 418.604 233.934 418.689 233.735C418.691 233.72 418.691 233.704 418.689 233.689L421.317 232.952L423.546 235.494C424.55 236.175 425.533 236.77 426.495 237.304L423.068 270.455C423.068 270.455 422.511 314.517 420.834 324.549C420.208 328.266 420.203 330.798 420.439 332.522L420.376 332.633C420.792 335.465 421.869 336.025 421.869 336.025V335.984L421.932 336.025C422.44 334.739 423.043 333.49 423.735 332.288V333.01C423.704 336.752 423.583 341.984 423.21 345.385C422.526 351.171 424.95 370.34 424.95 370.34L425.785 387.78C425.921 390.739 425.212 393.676 423.735 396.271C421.754 399.754 419.173 404.65 419.004 406.821C418.997 406.94 418.997 407.059 419.004 407.177L414.61 412.124C414.61 412.124 412.928 414.631 416.712 415.643C418.747 416.192 422.263 415.643 425.081 414.997C426.313 414.724 427.413 414.055 428.202 413.099C428.99 412.143 429.421 410.957 429.423 409.735C430.149 407.333 431.368 405.097 433.008 403.161L433.718 407.172L438.449 408.306L439.053 397.308C439.299 396.689 439.41 396.028 439.379 395.366C440.31 387.546 437.187 388.248 437.187 388.248C437.266 388.321 437.32 388.418 437.34 388.522C437.287 388.436 437.235 388.344 437.187 388.253C435.269 384.592 436.209 378.592 436.209 378.592C436.209 378.592 438.696 361.162 439.568 356.561C440.183 353.312 439.931 342.665 439.726 336.701C439.726 336.452 439.726 336.193 439.7 335.984C447.022 335.893 455.996 335.648 462.304 335.059V335.781L461.137 376.965C461.058 379.589 460.509 382.18 459.512 384.622C459.512 384.668 459.47 384.714 459.454 384.76C458.059 388.2 457.263 391.841 457.1 395.534L456.574 408.621V408.982C455.633 409.333 454.151 410.345 454.108 413.279C454.045 417.575 461.873 416.141 461.873 416.141C469.7 416.141 469.758 408.26 469.758 408.26C469.758 408.26 470.01 401.035 470.378 396.2C470.746 391.364 469.2 392.432 469.2 392.432L469.085 406.16V406.267V394.212L469.206 392.463V392.412L469.232 392.041L470.204 377.855C470.204 377.855 477.411 354.212 478.531 349.677C479.325 346.458 478.994 336.747 478.731 331.372C478.731 331.123 478.731 330.889 478.699 330.661C480.928 330.467 482.905 330.447 483.698 330.447H484.061C484.061 330.447 483.688 292.476 482.757 278.148C481.827 263.82 480.334 250.742 476.602 246.802C474.352 244.422 471.214 237.07 469.079 231.625C473.53 233.489 478.15 234.953 482.878 235.997C494.685 238.387 493.071 228.472 493.071 228.472L491.872 209.726H491.951C491.908 204.814 491.472 199.913 490.648 195.067C490.027 191.35 489.071 187.506 487.609 184.39C488.892 183.917 490.153 183.373 491.394 182.864C494.601 181.497 498.228 179.554 498.68 176.209H498.522C498.581 175.975 498.622 175.737 498.643 175.497V175.497ZM425.46 202.618C425.491 204.555 425.412 207.91 425.297 211.627L421.549 206.787L425.307 200.889L425.46 202.618ZM477.269 219.757L471.024 217.815C472.133 216.145 473.427 214.597 474.883 213.198L475.408 212.69L475.214 212.731L475.519 212.466L475.698 212.426L475.408 212.69L475.75 212.624C476.127 214.141 476.855 215.556 477.879 216.763C480.108 219.163 477.248 219.757 477.248 219.757H477.269Z" fill="url(#paint4_linear_39_4477)"/>
<path d="M439.311 394.023L438.575 407.416L433.918 406.292L432.935 400.72L439.311 394.023Z" fill="#A27772"/>
<path opacity="0.1" d="M439.311 394.023L438.575 407.416L433.918 406.292L432.935 400.72L439.311 394.023Z" fill="black"/>
<path d="M456.406 409.196L463.513 410.619L468.769 406.114V393.429L468.885 391.695V391.644L468.911 391.278L469.868 377.194C469.868 377.194 476.975 353.719 478.079 349.229C478.862 346.031 478.536 336.386 478.279 331.057C478.174 328.871 478.079 327.411 478.079 327.411L462.393 323.735L462.062 335.43L460.916 376.309C460.838 378.914 460.294 381.486 459.307 383.91L459.255 384.048C457.889 387.472 457.12 391.093 456.979 394.761L456.453 407.752V408.113L456.406 409.196Z" fill="#CC818C"/>
<path opacity="0.1" d="M468.906 391.283V391.644L468.932 391.278L468.906 391.283ZM456.406 409.196L463.513 410.619L468.769 406.114V405.036C468.753 405.276 468.676 405.508 468.544 405.711C468.411 405.915 468.229 406.083 468.013 406.201L467.939 406.242C465.491 407.495 462.716 408.026 459.959 407.767L457.184 407.538C456.933 407.565 456.688 407.623 456.453 407.711V408.072L456.406 409.196Z" fill="black"/>
<path d="M467.955 406.597L468.028 406.557C468.26 406.432 468.453 406.249 468.587 406.027C468.721 405.805 468.791 405.553 468.791 405.296L468.906 391.639C468.906 391.639 470.441 390.586 470.073 395.386C469.705 400.186 469.458 407.36 469.458 407.36C469.458 407.36 469.4 415.185 461.678 415.185C461.678 415.185 453.956 416.604 454.014 412.338C454.072 408.072 457.205 407.894 457.205 407.894L459.975 408.128C462.732 408.382 465.506 407.85 467.955 406.597V406.597Z" fill="#B07473"/>
<path d="M419.394 406.293C419.578 409.374 428.95 407.594 428.95 407.594L435.258 395.742C435.258 395.742 440.515 391.827 437.887 388.39C437.744 388.204 437.614 388.008 437.498 387.805V387.775C437.44 387.683 437.392 387.592 437.34 387.495C435.447 383.865 436.378 377.911 436.378 377.911C436.378 377.911 438.828 360.624 439.69 356.047C440.294 352.819 440.047 342.248 439.842 336.33C439.763 333.874 439.69 332.216 439.69 332.216L424.119 328.189V332.679C424.088 336.391 423.972 341.587 423.594 344.963C422.921 350.714 425.313 369.74 425.313 369.74L426.138 387.058C426.255 389.989 425.541 392.896 424.072 395.463C422.117 398.92 419.572 403.786 419.394 405.942C419.383 406.058 419.383 406.176 419.394 406.293V406.293Z" fill="#CC818C"/>
<path opacity="0.1" d="M419.394 406.292C419.578 409.374 428.95 407.594 428.95 407.594L435.258 395.742C435.258 395.742 440.515 391.827 437.887 388.39C437.744 388.204 437.614 388.008 437.498 387.805C437.413 389.6 435.395 394.079 435.395 394.079C435.395 394.079 430.186 404.162 428.561 406.47C426.937 408.779 419.704 406.043 419.436 405.962C419.412 406.071 419.398 406.181 419.394 406.292V406.292Z" fill="black"/>
<path d="M437.329 387.485C437.329 387.485 440.41 386.793 439.495 394.557C439.528 395.44 439.32 396.315 438.891 397.095C438.461 397.875 437.827 398.53 437.051 398.996C434.848 400.338 431.442 403.221 429.723 408.83C429.724 410.041 429.302 411.216 428.525 412.166C427.749 413.116 426.663 413.784 425.444 414.061C422.663 414.687 419.194 415.241 417.186 414.697C413.448 413.68 415.083 411.204 415.083 411.204L419.372 406.282C419.372 406.282 426.847 409.13 428.503 406.816C430.159 404.503 435.337 394.425 435.337 394.425C435.337 394.425 438.265 388.136 437.329 387.485V387.485Z" fill="#B07473"/>
<path opacity="0.1" d="M462.414 325.144L462.083 336.838C466.288 336.447 469.253 335.898 469.768 335.13C470.867 333.477 474.883 332.776 478.3 332.491C478.195 330.305 478.1 328.845 478.1 328.845L462.414 325.144ZM424.104 334.082C424.507 333.294 425.096 332.608 425.822 332.079C427.478 331.189 427.3 337.769 427.3 337.769C427.3 337.769 432.793 337.819 439.832 337.733C439.753 335.272 439.679 333.62 439.679 333.62L424.109 329.593C424.109 329.593 424.13 331.469 424.104 334.082Z" fill="black"/>
<path d="M422.332 335.648C422.332 335.648 424.172 330.833 425.823 329.949C427.473 329.064 427.3 335.638 427.3 335.638C427.3 335.638 467.745 335.994 469.768 332.969C471.792 329.943 483.557 330.127 483.557 330.127C483.557 330.127 483.189 292.425 482.269 278.199C481.349 263.972 479.877 250.991 476.203 247.081C473.821 244.539 470.42 236.358 468.349 230.897C467.209 227.913 466.457 225.742 466.457 225.742L427.852 227.877L427.536 230.897L423.436 270.556C423.436 270.556 422.91 314.283 421.228 324.259C419.546 334.235 422.332 335.648 422.332 335.648V335.648Z" fill="#444053"/>
<g opacity="0.1">
<path d="M466.651 332.994C468.67 329.974 480.439 330.152 480.439 330.152C480.439 330.152 480.071 292.45 479.151 278.224C478.232 263.997 476.76 251.017 473.085 247.107C470.704 244.564 467.303 236.384 465.232 230.923C464.275 228.416 463.592 226.484 463.397 225.93L466.393 225.767C466.393 225.767 467.145 227.938 468.286 230.923C470.389 236.384 473.758 244.575 476.139 247.107C479.819 251.017 481.286 263.997 482.206 278.224C483.125 292.45 483.472 330.127 483.472 330.127C483.472 330.127 471.708 329.943 469.689 332.994C467.96 335.577 438.197 335.694 429.555 335.674C440.636 335.623 465.074 335.303 466.651 332.994ZM422.689 329.943C423.436 329.542 423.809 330.655 423.993 331.977C423.326 333.15 422.745 334.367 422.253 335.618C422.253 335.618 421.202 335.064 420.781 332.252C421.365 331.25 422.043 330.294 422.689 329.943V329.943Z" fill="black"/>
</g>
<path d="M434.259 134.526C431.589 138.054 434.291 143.063 431.426 146.49C430.48 147.623 429.024 148.432 428.035 149.54C426.206 151.605 426.28 154.401 427.179 156.826C428.078 159.252 429.702 161.453 430.816 163.813C431.3 164.829 431.689 165.984 431.19 167.001C430.843 167.707 430.138 168.241 429.549 168.856C427.71 170.844 427.657 173.61 428.645 175.949C429.634 178.288 431.531 180.317 433.376 182.29C434.112 183.073 435.043 183.932 436.267 183.912C436.913 183.861 437.536 183.662 438.086 183.332C442.447 181.111 445.754 177.351 447.322 172.832C448.647 168.582 448.368 164.013 446.534 159.943C444.957 156.349 442.391 152.901 442.37 149.098C442.37 146.083 443.974 143.205 444.258 140.2C444.605 136.555 442.37 130.758 437.818 129.167C438.118 131.521 435.637 132.736 434.259 134.526V134.526Z" fill="#585268"/>
<path opacity="0.1" d="M434.259 134.526C431.589 138.054 434.291 143.063 431.426 146.49C430.48 147.623 429.024 148.432 428.035 149.54C426.206 151.605 426.28 154.401 427.179 156.826C428.078 159.252 429.702 161.453 430.816 163.813C431.3 164.829 431.689 165.984 431.19 167.001C430.843 167.707 430.138 168.241 429.549 168.856C427.71 170.844 427.657 173.61 428.645 175.949C429.634 178.288 431.531 180.317 433.376 182.29C434.112 183.073 435.043 183.932 436.267 183.912C436.913 183.861 437.536 183.662 438.086 183.332C442.447 181.111 445.754 177.351 447.322 172.832C448.648 168.582 448.368 164.013 446.534 159.943C444.957 156.349 442.391 152.901 442.37 149.098C442.37 146.083 443.974 143.205 444.258 140.2C444.605 136.555 442.37 130.758 437.818 129.167C438.118 131.521 435.637 132.736 434.259 134.526V134.526ZM463.902 262.716C458.551 262.991 453.515 265.213 448.831 267.73C444.147 270.246 439.616 273.119 434.575 274.889M460.574 274.909C455.28 275.4 450.346 277.72 446.676 281.443C445.377 282.775 444.258 284.27 442.901 285.546C440.822 287.5 438.256 288.901 435.453 289.613M461.673 284.183C457.405 285.329 453.543 287.581 450.503 290.696C449.682 291.551 448.926 292.471 448.116 293.32C443.685 297.896 437.429 300.362 431.389 302.67" fill="black"/>
<path d="M461.216 155.499C461.335 159.635 461.704 163.761 462.32 167.855C462.814 170.773 463.518 173.371 464.527 174.526C467.466 177.907 450.187 182.442 450.187 182.442L439.984 174.815C439.984 174.815 448.074 167.611 444.305 160.579C440.536 153.547 461.216 155.499 461.216 155.499V155.499Z" fill="#CC818C"/>
<path opacity="0.1" d="M427.536 230.897H468.349C467.208 227.913 466.457 225.742 466.457 225.742L427.852 227.877L427.536 230.897Z" fill="black"/>
<path d="M424.908 230.186H468.538C467.313 225.945 468.538 222.015 470.289 219C471.512 216.881 473.051 214.949 474.857 213.264L475.156 213.005L490.401 209.736L491.221 209.563C491.221 209.563 491.342 182.773 481.538 179.096C471.734 175.42 465.847 170.453 465.847 170.453L452.369 174.48L442.439 169.624C439.253 172.944 430.795 171.658 430.795 171.658C416.944 173.183 416.944 183.276 416.944 183.276C416.944 183.276 425.034 201.534 425.649 201.534C426.264 201.534 424.908 230.186 424.908 230.186V230.186Z" fill="#67647E"/>
<path opacity="0.1" d="M439.973 213.153C439.973 213.153 431.074 211.246 428.046 207.911ZM484.839 203.156L474.536 211.337C474.611 211.984 474.725 212.626 474.878 213.259L475.177 213L490.422 209.731L484.839 203.156ZM456.895 227.343C456.895 227.343 459.155 228.574 462.614 230.186H468.543C467.319 225.945 468.543 222.015 470.294 219L459.817 215.72C463.392 218.924 456.895 227.343 456.895 227.343V227.343Z" fill="black"/>
<path d="M423.068 180.042L416.939 183.24L410.93 197.94C410.93 197.94 404.68 214.063 405.29 218.334C405.29 218.334 403.087 228.406 407.009 230.186L417.238 234.66C417.418 234.739 417.62 234.762 417.814 234.724C418.008 234.687 418.185 234.592 418.32 234.452C418.455 234.312 418.542 234.135 418.567 233.945C418.593 233.755 418.557 233.563 418.463 233.394C417.007 230.725 415.409 226.555 417.937 224.242L414.994 218.318L425.649 201.499L429.197 195.713L423.068 180.042Z" fill="#67647E"/>
<path opacity="0.1" d="M436.688 209.787C437.214 211.882 439.012 215.1 444.941 216.315L451.47 221.471L458.393 224.522L461.21 225.757L462.409 217.398L459.691 215.959L456.537 214.286C456.537 214.286 449.393 201.758 438.076 207.051C437.556 207.285 437.135 207.684 436.882 208.182C436.63 208.68 436.561 209.246 436.688 209.787V209.787Z" fill="black"/>
<path d="M437.061 209.075C437.587 211.17 439.384 214.388 445.314 215.603L451.843 220.764L458.766 223.815L461.583 225.05L462.782 216.691L460.064 215.257L456.91 213.58C456.91 213.58 449.766 201.056 438.449 206.344C437.93 206.578 437.51 206.976 437.257 207.473C437.005 207.97 436.936 208.535 437.061 209.075V209.075Z" fill="#CC818C"/>
<path opacity="0.1" d="M449.814 166.35C458.547 166.35 465.626 159.502 465.626 151.055C465.626 142.609 458.547 135.761 449.814 135.761C441.081 135.761 434.002 142.609 434.002 151.055C434.002 159.502 441.081 166.35 449.814 166.35Z" fill="black"/>
<path d="M449.814 165.994C458.547 165.994 465.626 159.146 465.626 150.699C465.626 142.253 458.547 135.405 449.814 135.405C441.081 135.405 434.002 142.253 434.002 150.699C434.002 159.146 441.081 165.994 449.814 165.994Z" fill="#CC818C"/>
<path opacity="0.1" d="M459.607 183.373L454.876 174.434C454.876 174.434 461.836 171.719 462.34 168.566C462.845 165.414 469.006 172.258 467.671 174.525C466.336 176.793 459.607 183.373 459.607 183.373Z" fill="black"/>
<path d="M459.607 182.661L454.876 173.722C454.876 173.722 461.836 171.007 462.34 167.855C462.845 164.702 469.006 171.551 467.671 173.814C466.336 176.076 459.607 182.661 459.607 182.661Z" fill="#67647E"/>
<path d="M420.702 205.744L446.986 239.907C446.986 239.907 437.303 244.992 423.94 235.875L418.158 229.24L401.731 202.445L420.702 205.744Z" fill="#F6F8FB"/>
<path d="M415.53 224.318L417.922 224.257C417.922 224.257 432.535 210.529 436.12 217.474C439.705 224.42 427.021 230.897 427.021 230.897L423.163 232.931L418.106 234.355L414.889 230.175L415.53 224.318Z" fill="#CC818C"/>
<path opacity="0.1" d="M419.057 231.731C419.278 232.52 419.488 233.389 419.12 234.121C419.035 234.319 418.88 234.481 418.684 234.579C418.518 234.646 418.337 234.67 418.158 234.65C416.892 234.545 415.714 233.98 414.862 233.069C414.021 232.164 413.302 231.159 412.723 230.079C412.071 228.986 411.393 227.766 411.629 226.52C411.887 225.157 413.143 224.211 414.342 223.469C416.765 221.918 416.823 223.723 417.375 225.716L419.057 231.731Z" fill="black"/>
<path d="M418.689 231.731C418.91 232.52 419.12 233.389 418.752 234.121C418.667 234.319 418.513 234.481 418.316 234.579C418.15 234.646 417.969 234.67 417.79 234.65C416.524 234.545 415.347 233.98 414.494 233.069C413.653 232.164 412.934 231.159 412.355 230.079C411.703 228.986 411.025 227.766 411.262 226.52C411.519 225.157 412.775 224.211 413.974 223.469C416.397 221.918 416.455 223.723 417.007 225.716L418.689 231.731Z" fill="#67647E"/>
<path opacity="0.1" d="M425.644 201.499L426.868 199.501L425.796 203.212L425.644 201.499V201.499ZM458.766 223.794L461.583 225.03L462.782 216.671L460.064 215.237C461.92 217.302 460.296 221.135 458.766 223.794ZM470.073 214.093C470.073 214.093 460.974 214.627 457.115 212.227Z" fill="black"/>
<g opacity="0.1">
<path d="M468.943 219.706C470.169 217.589 471.71 215.656 473.516 213.971C473.95 213.708 474.399 213.47 474.862 213.259L489.055 210.443L489.875 210.27C489.875 210.27 490.001 183.479 480.192 179.803C474.695 177.776 469.542 174.967 464.901 171.47L465.978 171.149C465.978 171.149 471.86 176.127 481.664 179.793C491.468 183.459 491.357 210.27 491.357 210.27H489.886L475.356 212.959L474.536 213.717C472.714 215.479 471.152 217.476 469.894 219.651C467.977 223.099 467.54 227.14 468.68 230.897H467.177C465.968 226.657 467.214 222.727 468.943 219.706ZM430.207 172.426C430.443 172.395 430.669 172.36 430.911 172.334C431.906 172.47 432.908 172.55 433.912 172.573C432.675 172.606 431.437 172.557 430.207 172.426V172.426ZM451.012 175.176L442.034 170.799C442.22 170.657 442.396 170.502 442.56 170.336L451.927 174.912L451.012 175.176Z" fill="black"/>
</g>
<path d="M485.207 202.445L491.216 209.563L492.44 228.884C492.44 228.884 494.017 238.723 482.39 236.353C470.762 233.984 457.263 226.632 457.263 226.632C457.263 226.632 463.76 218.212 460.206 215.013L476.875 220.23C476.875 220.23 479.693 219.635 477.485 217.266C475.277 214.897 474.888 210.626 474.888 210.626L485.207 202.445Z" fill="#67647E"/>
<path opacity="0.1" d="M487.904 222.838L491.216 226.51C490.364 226.258 489.603 225.78 489.018 225.132C488.432 224.483 488.046 223.688 487.904 222.838V222.838ZM482.269 222.244L487.415 228.645L484.844 229.24L482.269 222.244ZM430.937 143.678C430.369 142.341 430.801 140.795 431.463 139.509C432.125 138.222 433.077 137.053 433.566 135.69C434.328 133.656 434.091 131.378 434.922 129.375C436.378 125.867 440.515 124.291 444.226 123.106C445.32 122.755 446.486 122.399 447.611 122.659C449.094 123.004 450.087 124.321 451.291 125.201C456.327 128.831 464.512 124.835 469.379 128.679C471.245 130.148 472.15 132.507 472.428 134.816C472.707 137.124 472.428 139.468 472.402 141.797C472.323 145.864 473.106 150.328 476.266 153.028C477.217 153.842 478.337 154.457 479.262 155.296C480.187 156.135 480.918 157.33 480.755 158.535C480.624 159.095 480.448 159.644 480.229 160.177C479.598 162.302 480.534 164.555 481.675 166.472C485.081 172.166 491.079 176.859 497.886 176.992C497.429 180.312 493.865 182.239 490.7 183.601C486.669 185.335 482.432 187.039 478.027 186.82C473.621 186.601 469.027 183.876 468.244 179.702C467.976 178.263 468.013 176.498 466.719 175.741C465.941 175.283 464.932 175.4 464.091 175.054C462.877 174.546 462.272 173.254 461.873 172.034C461.052 169.526 460.611 166.916 460.564 164.285C460.511 161.169 460.942 157.767 459.113 155.199C457.42 152.825 454.414 151.64 452.463 149.434C450.666 147.4 448.705 144.969 445.756 144.583C441.792 144.029 433.35 149.393 430.937 143.678V143.678Z" fill="black"/>
<path d="M430.937 142.966C430.369 141.629 430.801 140.083 431.463 138.797C432.125 137.51 433.077 136.341 433.566 134.978C434.328 132.944 434.091 130.667 434.922 128.663C436.378 125.155 440.515 123.579 444.226 122.394C445.32 122.043 446.486 121.687 447.611 121.947C449.094 122.292 450.087 123.609 451.291 124.489C456.327 128.124 464.512 124.123 469.379 127.967C471.245 129.441 472.15 131.795 472.428 134.104C472.707 136.412 472.428 138.756 472.402 141.085C472.323 145.152 473.106 149.617 476.266 152.316C477.217 153.13 478.337 153.745 479.262 154.584C480.187 155.423 480.918 156.618 480.755 157.823C480.623 158.384 480.448 158.935 480.229 159.47C479.598 161.591 480.534 163.848 481.675 165.76C485.081 171.454 491.079 176.147 497.886 176.28C497.429 179.6 493.865 181.527 490.7 182.889C486.669 184.628 482.432 186.327 478.027 186.108C473.621 185.889 469.027 183.164 468.244 178.964C467.976 177.525 468.013 175.761 466.719 175.003C465.941 174.546 464.932 174.663 464.091 174.317C462.877 173.809 462.272 172.517 461.873 171.297C461.052 168.789 460.611 166.179 460.564 163.548C460.511 160.431 460.942 157.03 459.113 154.462C457.42 152.088 454.414 150.903 452.463 148.696C450.666 146.662 448.705 144.232 445.756 143.846C441.792 143.342 433.35 148.681 430.937 142.966V142.966Z" fill="#585268"/>
<path opacity="0.1" d="M442.145 182.264L451.207 175.146C451.207 175.146 445.004 171.892 444.263 169.116C443.522 166.339 438.56 170.433 439.064 172.924C439.569 175.415 442.145 182.264 442.145 182.264Z" fill="black"/>
<path d="M442.512 181.197L451.575 174.078C451.575 174.078 445.372 170.824 444.631 168.048C443.89 165.272 438.927 169.365 439.432 171.856C439.937 174.348 442.512 181.197 442.512 181.197Z" fill="#67647E"/>
<path opacity="0.1" d="M451.927 180.734C452.325 180.734 452.647 180.422 452.647 180.037C452.647 179.652 452.325 179.341 451.927 179.341C451.529 179.341 451.207 179.652 451.207 180.037C451.207 180.422 451.529 180.734 451.927 180.734Z" fill="black"/>
<path opacity="0.1" d="M451.927 184.608C452.325 184.608 452.647 184.296 452.647 183.912C452.647 183.527 452.325 183.215 451.927 183.215C451.529 183.215 451.207 183.527 451.207 183.912C451.207 184.296 451.529 184.608 451.927 184.608Z" fill="black"/>
<path opacity="0.1" d="M451.927 188.477C452.325 188.477 452.647 188.166 452.647 187.781C452.647 187.396 452.325 187.084 451.927 187.084C451.529 187.084 451.207 187.396 451.207 187.781C451.207 188.166 451.529 188.477 451.927 188.477Z" fill="black"/>
<g opacity="0.1">
<path d="M434.585 133.087C435.3 131.18 435.148 129.045 435.815 127.128C435.509 127.553 435.253 128.01 435.053 128.491C434.222 130.494 434.454 132.782 433.697 134.811C433.697 134.846 433.66 134.887 433.644 134.928C434.015 134.343 434.33 133.727 434.585 133.087V133.087ZM491.773 180.998C487.741 182.737 483.504 184.435 479.093 184.217C474.683 183.998 470.099 181.273 469.316 177.073C469.048 175.634 469.085 173.87 467.792 173.112C467.014 172.655 466.004 172.772 465.163 172.426C463.944 171.917 463.344 170.626 462.945 169.406C462.123 166.894 461.682 164.281 461.636 161.647C461.583 158.53 462.009 155.128 460.185 152.561C458.493 150.186 455.486 149.001 453.535 146.795C451.732 144.761 449.777 142.331 446.823 141.944C442.775 141.436 434.328 146.774 431.92 141.059C431.534 139.979 431.589 138.797 432.072 137.755C431.899 138.039 431.731 138.324 431.578 138.614C430.895 139.9 430.464 141.446 431.053 142.783C433.465 148.498 441.908 143.134 445.961 143.668C448.91 144.054 450.87 146.5 452.673 148.518C454.624 150.705 457.625 151.91 459.318 154.289C461.147 156.832 460.721 160.259 460.774 163.37C460.817 166.002 461.256 168.614 462.078 171.124C462.477 172.339 463.082 173.666 464.296 174.144C465.137 174.485 466.146 174.373 466.924 174.831C468.212 175.583 468.181 177.373 468.443 178.786C469.227 182.986 473.821 185.717 478.226 185.935C482.631 186.154 486.873 184.451 490.9 182.712C493.802 181.466 497.034 179.732 497.902 176.895C496.493 178.761 494.033 180.027 491.773 180.998Z" fill="black"/>
</g>
</g>
<defs>
<linearGradient id="paint0_linear_39_4477" x1="185.261" y1="161.255" x2="185.261" y2="69.0017" gradientUnits="userSpaceOnUse">
<stop stop-color="#808080" stop-opacity="0.25"/>
<stop offset="0.54" stop-color="#808080" stop-opacity="0.12"/>
<stop offset="1" stop-color="#808080" stop-opacity="0.1"/>
</linearGradient>
<linearGradient id="paint1_linear_39_4477" x1="299.541" y1="280.405" x2="299.541" y2="193.628" gradientUnits="userSpaceOnUse">
<stop stop-color="#808080" stop-opacity="0.25"/>
<stop offset="0.54" stop-color="#808080" stop-opacity="0.12"/>
<stop offset="1" stop-color="#808080" stop-opacity="0.1"/>
</linearGradient>
<linearGradient id="paint2_linear_39_4477" x1="43.7511" y1="146.495" x2="43.7511" y2="146.403" gradientUnits="userSpaceOnUse">
<stop stop-color="#808080" stop-opacity="0.25"/>
<stop offset="0.54" stop-color="#808080" stop-opacity="0.12"/>
<stop offset="1" stop-color="#808080" stop-opacity="0.1"/>
</linearGradient>
<linearGradient id="paint3_linear_39_4477" x1="73.4566" y1="418.287" x2="73.4566" y2="111.442" gradientUnits="userSpaceOnUse">
<stop stop-color="#808080" stop-opacity="0.25"/>
<stop offset="0.54" stop-color="#808080" stop-opacity="0.12"/>
<stop offset="1" stop-color="#808080" stop-opacity="0.1"/>
</linearGradient>
<linearGradient id="paint4_linear_39_4477" x1="449.856" y1="416.35" x2="449.856" y2="120.676" gradientUnits="userSpaceOnUse">
<stop stop-color="#808080" stop-opacity="0.25"/>
<stop offset="0.54" stop-color="#808080" stop-opacity="0.12"/>
<stop offset="1" stop-color="#808080" stop-opacity="0.1"/>
</linearGradient>
<clipPath id="clip0_39_4477">
<rect width="538" height="426" fill="white"/>
</clipPath>
</defs>
</svg>
