<svg width="148" height="23" viewBox="0 0 148 23" fill="none" xmlns="http://www.w3.org/2000/svg">
<g clip-path="url(#clip0_904_46)">
<path d="M17.2464 0.518315C12.4827 0.515956 7.51235 1.54211 2.49576 2.87316C1.85875 2.99583 1.23715 3.39449 0.908465 3.88752C0.606298 4.35224 0.496531 4.81873 0.402181 5.30762C-0.0849855 7.91901 -0.0257855 10.4832 0.0753479 13.3246C0.0975479 13.9751 0.198681 14.7459 0.516265 15.2147C0.848031 15.6883 1.4166 15.9891 2.09555 16.0875C2.96295 16.2092 3.83308 16.3125 4.70528 16.3972L4.51288 21.5268C4.48328 21.9349 4.69171 22.274 4.95071 22.4692C5.18258 22.6378 5.44097 22.7127 5.70613 22.7316C6.23647 22.7699 6.85868 22.5529 7.16763 21.9903C8.52121 19.4992 9.37037 18.3993 11.0631 16.7445C15.4772 16.8483 19.3308 16.6136 23.6937 16.3052C25.236 16.2668 26.2948 15.0608 26.5747 14.0978C27.4116 11.602 27.5417 8.52114 27.6305 5.4067C27.6681 4.17237 27.2204 2.96044 26.428 2.31998C25.6744 1.73555 24.7617 1.52383 23.9255 1.3068C21.6026 0.803751 19.279 0.533648 17.2464 0.518315ZM23.5919 2.47037C24.4294 2.68798 25.1675 2.89734 25.6331 3.25885C26.4101 4.04852 26.3842 4.57398 26.3731 5.42616C26.2855 8.44683 26.1338 11.3784 25.421 13.6C25.1139 14.4286 24.5786 15.0183 23.5673 15.1074C19.1223 15.4217 15.2657 15.6647 10.7979 15.5432C10.711 15.5406 10.6243 15.555 10.5434 15.5856C10.4625 15.6163 10.389 15.6624 10.3274 15.7213C8.4503 17.5342 7.49015 18.7939 6.05948 21.4277C6.02618 21.4878 5.95403 21.5244 5.86523 21.5309C5.80541 21.5279 5.78137 21.4837 5.77767 21.4436L5.9713 15.8811C5.98301 15.581 5.72401 15.2943 5.41198 15.2619C4.36865 15.1666 3.32817 15.0447 2.29165 14.8963C1.84395 14.8308 1.67868 14.7134 1.55596 14.5389C1.3426 14.0523 1.34753 13.7516 1.33088 13.2839C1.23098 10.4679 1.18165 8.00688 1.63366 5.55826C1.6756 5.19616 1.81743 4.8258 1.9679 4.51619C2.21703 4.14347 2.59875 4.08862 2.9817 3.98719C7.8879 2.69152 12.688 1.72257 17.207 1.71962C19.422 1.79629 21.7481 2.0086 23.5919 2.47037ZM6.64655 7.24139C5.97068 8.01573 6.0379 9.06724 6.56021 9.77139C6.83278 10.14 7.25828 10.4366 7.77628 10.5039C8.44906 10.5569 8.8758 10.2963 9.33645 9.99667C10.1708 9.30314 10.2553 8.09298 9.62073 7.21898C9.2976 6.77373 8.78083 6.50657 8.25297 6.4877C7.53023 6.49478 7.03936 6.80321 6.64655 7.2408V7.24139ZM13.9577 6.60919C13.2843 6.62983 12.7398 7.07567 12.4074 7.5569C12.027 8.10714 11.805 8.79596 12.1127 9.47121C12.7047 10.7704 14.7502 10.7545 15.566 9.43406C15.9422 8.82544 15.846 8.13367 15.566 7.6318C15.2873 7.13052 14.8655 6.72183 14.2519 6.62806C14.1547 6.61277 14.0562 6.60645 13.9577 6.60919ZM19.8932 6.73126C19.6835 6.72655 19.4677 6.74542 19.2654 6.79672C18.4563 7.00314 17.7675 7.80165 17.8717 8.82367C17.9248 9.33793 18.172 9.83921 18.6179 10.1848C19.0637 10.5298 19.7112 10.6843 20.3939 10.5504C21.1783 10.3971 21.6642 9.79262 21.8264 9.20878C21.9886 8.62493 21.9479 8.02988 21.5711 7.54747C21.3751 7.29816 21.122 7.09501 20.8313 6.95355C20.5406 6.81209 20.2193 6.73606 19.8932 6.73126ZM8.19808 7.68842C8.34916 7.6896 8.46818 7.7356 8.5909 7.90426C8.86531 8.28288 8.78885 8.8567 8.51197 9.0867C8.23632 9.3167 8.06426 9.33675 7.9434 9.32142C7.82253 9.30549 7.69981 9.22588 7.59005 9.07726C7.38038 8.79419 7.31871 8.33655 7.59436 8.00983C7.74113 7.82347 8.01061 7.70729 8.1987 7.68842H8.19808ZM14.0459 7.81993C14.0694 7.82347 14.3321 7.96914 14.4579 8.19501C14.5837 8.42088 14.6071 8.63083 14.4875 8.82367C14.1316 9.39926 13.375 9.24357 13.2603 8.99293C13.2171 8.89739 13.2498 8.51347 13.4576 8.21447C13.6642 7.91429 13.9244 7.80165 14.0459 7.81934V7.81993ZM20.5604 8.26106C20.5986 8.31001 20.6917 8.63849 20.6196 8.89916C20.5468 9.15983 20.4284 9.32083 20.1386 9.37744C19.7674 9.45057 19.5589 9.37744 19.4029 9.25537C19.2463 9.13447 19.1408 8.92983 19.118 8.71103C19.0625 8.16847 19.266 8.04285 19.5891 7.96029C19.9653 7.87183 20.3908 8.02634 20.5604 8.26106Z" fill="#FF52C1"/>
<path d="M35.5264 2.94628C35.5362 2.79295 35.5948 2.65495 35.7033 2.53287C35.7562 2.47302 35.8225 2.42546 35.8974 2.39378C35.9723 2.36211 36.0538 2.34715 36.1356 2.35005H40.345C40.4868 2.35005 40.633 2.40666 40.7841 2.5193C40.8549 2.56791 40.9124 2.63206 40.9519 2.70636C40.9914 2.78066 41.0117 2.86294 41.011 2.94628V9.37036H48.054V2.94628C48.054 2.78351 48.1131 2.64374 48.2309 2.52638C48.3493 2.40843 48.5023 2.34946 48.6916 2.34946H52.8442C53.0329 2.34946 53.1982 2.39487 53.34 2.4851C53.4819 2.57592 53.5528 2.72041 53.5528 2.91915V21.8794C53.5528 22.0781 53.4911 22.2274 53.3678 22.3264C53.2457 22.4261 53.0847 22.4756 52.8868 22.4756H48.6916C48.5029 22.4756 48.3493 22.4261 48.2309 22.3264C48.1131 22.2274 48.054 22.0787 48.054 21.8794V14.1815H41.011V21.8794C41.011 22.0693 40.9469 22.2156 40.8198 22.3199C40.6922 22.4237 40.5195 22.4756 40.3018 22.4756H36.1356C35.7391 22.4756 35.5362 22.2993 35.5264 21.9472V2.94628ZM74.2993 22.2456C74.1766 22.3447 74.0464 22.4078 73.9095 22.4349C73.7816 22.4613 73.6513 22.4751 73.5204 22.4762H71.3806C71.2104 22.4762 71.0636 22.4467 70.9409 22.3878C70.8176 22.3288 70.714 22.2498 70.6289 22.1507C70.5418 22.0478 70.4704 21.9336 70.4168 21.8116C70.3596 21.6841 70.3122 21.5528 70.2749 21.4188L69.8359 19.6838C69.694 19.9639 69.4887 20.2824 69.2192 20.6392C68.9276 21.0178 68.5818 21.3553 68.1918 21.6417C67.7762 21.9543 67.2798 22.2161 66.7038 22.4285C66.1272 22.6408 65.4661 22.7469 64.7194 22.7469C63.6427 22.7469 62.6646 22.5482 61.7859 22.1507C60.9256 21.7663 60.1601 21.2119 59.54 20.5242C58.9215 19.8377 58.4417 19.0357 58.1019 18.118C57.7615 17.2016 57.5913 16.2232 57.5913 15.1846V6.30723C57.5913 5.964 57.6696 5.70451 57.8257 5.52818C57.9811 5.35184 58.2289 5.26397 58.5693 5.26397H61.8426C62.2496 5.26397 62.5277 5.32884 62.6788 5.46036C62.8299 5.59128 62.9058 5.84664 62.9058 6.22584V15.0484C62.9058 15.4376 62.9983 15.8056 63.182 16.1536C63.3664 16.5015 63.6094 16.8082 63.9121 17.0748C64.2143 17.3413 64.5566 17.5519 64.9395 17.7052C65.3219 17.8585 65.7116 17.9352 66.1087 17.9352C66.4485 17.9352 66.8006 17.8585 67.1645 17.7052C67.5307 17.5499 67.8699 17.3419 68.1702 17.0883C68.4773 16.8312 68.7302 16.5281 68.9287 16.1801C69.1273 15.8322 69.226 15.4642 69.226 15.0761V6.26654C69.226 6.1132 69.2568 5.95987 69.3185 5.80595C69.3801 5.65261 69.472 5.53466 69.5947 5.45328C69.7175 5.38133 69.8334 5.33179 69.9419 5.30466C70.0504 5.27754 70.1763 5.26338 70.3175 5.26338H73.5204C73.9262 5.26338 74.2191 5.35892 74.3986 5.54823C74.578 5.73813 74.6681 5.99112 74.6681 6.30723V21.4731C74.6681 21.6441 74.628 21.8027 74.5478 21.9472C74.4676 22.0917 74.3566 22.2049 74.2148 22.2857L74.2993 22.2456ZM90.7526 20.375C90.4973 20.6191 90.2161 20.881 89.9096 21.1611C89.6025 21.4412 89.2646 21.7037 88.8964 21.9472C88.5258 22.1923 88.1264 22.3948 87.7062 22.5505C87.2674 22.711 86.8009 22.7915 86.3311 22.7876C85.0466 22.7876 83.8632 22.5576 82.7809 22.0964C81.7259 21.6537 80.7761 21.0105 79.9893 20.2057C79.2098 19.406 78.6005 18.4642 78.1615 17.3797C77.7218 16.2957 77.5023 15.1304 77.5023 13.8831C77.5023 12.6269 77.7218 11.4592 78.1615 10.38C78.6005 9.30077 79.2098 8.36071 79.9893 7.56102C80.7752 6.75705 81.7254 6.11594 82.7809 5.67738C83.8632 5.22092 85.0466 4.99269 86.3311 4.99269C86.8509 4.99269 87.3258 5.06523 87.7556 5.20971C88.1703 5.34713 88.5654 5.53377 88.9315 5.76525C89.2861 5.99113 89.6117 6.24648 89.9096 6.53074C90.2068 6.81559 90.488 7.09336 90.7526 7.36464V1.17056C90.7526 0.881587 90.8451 0.638023 91.0288 0.439279C91.2132 0.239946 91.4895 0.140869 91.8583 0.140869H95.0464C95.1697 0.140869 95.2993 0.165638 95.4362 0.215177C95.5731 0.265305 95.6982 0.334895 95.8123 0.425715C95.9252 0.515946 96.017 0.624459 96.088 0.750664C96.1589 0.877459 96.1946 1.01723 96.1946 1.17056V21.4324C96.1946 22.1283 95.8123 22.4762 95.0464 22.4762H92.269C92.0803 22.4762 91.9335 22.4526 91.8299 22.4078C91.727 22.3637 91.6368 22.2963 91.5672 22.2114C91.4882 22.112 91.4239 22.0026 91.376 21.8865C91.3092 21.7335 91.2385 21.5821 91.1639 21.4324L90.7526 20.375ZM82.6039 13.8831C82.5992 14.453 82.6975 15.0194 82.8944 15.5574C83.088 16.0763 83.3643 16.5263 83.7238 16.9055C84.0867 17.2877 84.5279 17.5944 85.02 17.8066C85.5257 18.0284 86.0856 18.1387 86.6998 18.1387C87.3042 18.1387 87.8734 18.0349 88.4074 17.8273C88.926 17.6286 89.3998 17.3363 89.8029 16.9663C90.2034 16.5957 90.528 16.1569 90.76 15.6724C91.0005 15.1752 91.1355 14.6421 91.1639 14.073V13.8831C91.166 13.3159 91.0503 12.754 90.8235 12.23C90.6038 11.7163 90.2841 11.2472 89.8812 10.8477C89.4774 10.4486 88.996 10.1287 88.4641 9.90584C87.9081 9.67291 87.3068 9.55513 86.6998 9.56025C86.0856 9.56025 85.5257 9.67525 85.02 9.90584C84.5144 10.1358 84.0827 10.4502 83.7238 10.8477C83.359 11.2545 83.0776 11.7235 82.8944 12.23C82.6997 12.7612 82.6017 13.3203 82.6046 13.8831H82.6039ZM112.648 20.375C112.393 20.6191 112.111 20.881 111.804 21.1611C111.497 21.4412 111.159 21.7037 110.791 21.9472C110.421 22.1923 110.021 22.3948 109.601 22.5505C109.162 22.711 108.696 22.7915 108.226 22.7876C106.941 22.7876 105.758 22.5576 104.676 22.0964C103.621 21.6538 102.671 21.0105 101.884 20.2057C101.105 19.406 100.495 18.4642 100.056 17.3797C99.6172 16.2957 99.397 15.1304 99.397 13.8831C99.397 12.6269 99.6172 11.4592 100.056 10.38C100.495 9.30077 101.105 8.36071 101.884 7.56102C102.67 6.75699 103.621 6.11587 104.676 5.67738C105.758 5.22092 106.941 4.99269 108.226 4.99269C108.746 4.99269 109.221 5.06523 109.65 5.20971C110.065 5.34713 110.46 5.53377 110.826 5.76525C111.181 5.99113 111.506 6.24648 111.804 6.53074C112.102 6.81559 112.383 7.09336 112.647 7.36464V1.17056C112.647 0.881587 112.74 0.638023 112.924 0.439279C113.109 0.239946 113.384 0.140869 113.753 0.140869H116.941C117.065 0.140869 117.194 0.165638 117.331 0.215177C117.468 0.265305 117.594 0.334895 117.707 0.425715C117.82 0.515946 117.912 0.624459 117.983 0.750664C118.054 0.877459 118.089 1.01723 118.089 1.17056V21.4324C118.089 22.1283 117.707 22.4762 116.941 22.4762H114.164C113.975 22.4762 113.828 22.4526 113.725 22.4078C113.622 22.3636 113.532 22.2962 113.463 22.2114C113.384 22.112 113.319 22.0026 113.271 21.8865C113.204 21.7335 113.133 21.5821 113.059 21.4324L112.648 20.375ZM104.499 13.8831C104.494 14.453 104.592 15.0194 104.789 15.5574C104.983 16.0763 105.26 16.5263 105.619 16.9055C105.982 17.2878 106.423 17.5945 106.915 17.8066C107.421 18.0284 107.98 18.1387 108.595 18.1387C109.199 18.1387 109.768 18.0349 110.302 17.8273C110.821 17.6287 111.295 17.3363 111.698 16.9663C112.098 16.5956 112.422 16.1568 112.654 15.6724C112.895 15.1752 113.03 14.6421 113.059 14.073V13.8831C113.061 13.3159 112.945 12.754 112.718 12.23C112.499 11.7163 112.179 11.2472 111.776 10.8477C111.372 10.4486 110.891 10.1287 110.359 9.90584C109.803 9.67291 109.202 9.55513 108.595 9.56025C107.98 9.56025 107.42 9.67525 106.915 9.90584C106.41 10.1358 105.977 10.4502 105.619 10.8477C105.254 11.2545 104.972 11.7235 104.789 12.23C104.594 12.7612 104.496 13.3203 104.499 13.8831ZM121.86 1.18413C121.86 0.895151 121.935 0.651587 122.086 0.452844C122.238 0.25351 122.497 0.154433 122.865 0.154433H126.337C126.432 0.154433 126.532 0.179202 126.635 0.228741C126.744 0.282164 126.842 0.35342 126.926 0.439279C127.016 0.52951 127.091 0.638023 127.153 0.764228C127.214 0.891023 127.245 1.03079 127.245 1.18413V21.4324C127.245 21.7756 127.143 22.0351 126.94 22.2114C126.737 22.3878 126.475 22.4756 126.154 22.4756H122.865C122.497 22.4756 122.238 22.3872 122.086 22.2114C121.935 22.0351 121.86 21.775 121.86 21.4324V1.18413ZM145.725 20.4157C144.903 21.1416 143.953 21.7221 142.919 22.13C141.872 22.5427 140.749 22.7524 139.617 22.7469C138.322 22.7469 137.099 22.521 135.946 22.0687C134.82 21.6333 133.79 20.9964 132.913 20.1921C132.04 19.3864 131.337 18.4268 130.845 17.3661C130.334 16.2822 130.079 15.1033 130.079 13.8288C130.079 13.0338 130.18 12.2636 130.384 11.5182C130.58 10.7888 130.871 10.0856 131.248 9.42461C131.622 8.77401 132.079 8.17071 132.609 7.62884C133.138 7.08606 133.741 6.61412 134.401 6.22584C135.074 5.83257 135.798 5.52713 136.555 5.31764C137.352 5.09798 138.178 4.98855 139.007 4.99269C139.791 4.99269 140.551 5.09236 141.288 5.2911C142.025 5.48984 142.718 5.76997 143.365 6.13089C144.012 6.49241 144.604 6.92646 145.143 7.43246C145.675 7.93003 146.141 8.48748 146.532 9.09259C146.919 9.69329 147.222 10.3403 147.432 11.0169C147.644 11.6993 147.751 12.4016 147.751 13.1241C147.751 13.5941 147.744 13.978 147.729 14.2764C147.715 14.5743 147.642 14.8119 147.51 14.9877C147.377 15.1646 147.158 15.2861 146.851 15.3533C146.544 15.4217 146.092 15.4553 145.498 15.4553H135.294C135.389 16.0333 135.58 16.5169 135.868 16.9061C136.135 17.2745 136.474 17.5896 136.867 17.8338C137.245 18.0644 137.646 18.2289 138.072 18.3291C138.466 18.4246 138.87 18.4744 139.276 18.4778C139.617 18.4778 139.966 18.4436 140.325 18.3763C140.678 18.3099 141.027 18.2193 141.367 18.105C141.685 17.9993 141.993 17.8677 142.287 17.7117C142.566 17.5631 142.791 17.4068 142.961 17.2446C143.112 17.1267 143.242 17.0388 143.351 16.9798C143.459 16.9208 143.575 16.8919 143.698 16.8919C143.821 16.8919 143.946 16.9332 144.074 17.014C144.229 17.1179 144.374 17.2358 144.506 17.3661L146.008 18.9926C146.111 19.1106 146.178 19.2167 146.206 19.3111C146.235 19.406 146.249 19.5033 146.249 19.6024C146.249 19.7835 146.196 19.9392 146.093 20.0701C145.988 20.2018 145.865 20.3182 145.725 20.4157ZM138.908 9.1262C138.539 9.1262 138.183 9.19638 137.838 9.33615C137.488 9.47899 137.161 9.66841 136.867 9.89877C136.565 10.1335 136.293 10.4 136.052 10.6985C135.822 10.9798 135.625 11.2843 135.464 11.6067H142.706C142.516 11.2669 142.3 10.9407 142.061 10.6306C141.834 10.3365 141.567 10.0722 141.267 9.84451C140.961 9.61417 140.616 9.43547 140.247 9.3161C139.865 9.1893 139.418 9.1262 138.908 9.1262Z" fill="#00252E"/>
</g>
<defs>
<clipPath id="clip0_904_46">
<rect width="148" height="23" fill="white"/>
</clipPath>
</defs>
</svg>
