<svg width="32" height="32" viewBox="0 0 32 32" fill="none" xmlns="http://www.w3.org/2000/svg">
<path d="M12.6618 22.9998C14.0438 23.0081 15.4138 22.7537 16.6923 22.2513C17.9708 21.749 19.1324 21.0086 20.1097 20.0732C21.0869 19.1378 21.8604 18.026 22.3853 16.8023C22.9102 15.5786 23.176 14.2673 23.1673 12.9445V12.4824C23.8837 11.98 24.5037 11.3627 25 10.6577C24.3254 10.9401 23.6116 11.1274 22.8809 11.2138C23.6557 10.7719 24.237 10.0764 24.5173 9.25595C23.7952 9.67057 23.0035 9.96204 22.1773 10.1174C21.6209 9.54991 20.8845 9.17377 20.0823 9.04716C19.28 8.92055 18.4565 9.05054 17.7392 9.417C17.0219 9.78347 16.4508 10.366 16.1142 11.0744C15.7776 11.7829 15.6944 12.5777 15.8773 13.336C14.4095 13.2671 12.9733 12.903 11.6623 12.2675C10.3513 11.6319 9.1948 10.7393 8.26818 9.64751C7.80094 10.4237 7.65931 11.3409 7.87199 12.2133C8.08466 13.0857 8.63573 13.8481 9.41364 14.3463C8.83977 14.3251 8.27919 14.1748 7.77727 13.9077V13.9469C7.77217 14.7581 8.05768 15.5464 8.58621 16.1806C9.11474 16.8147 9.85437 17.2563 10.6818 17.4318C10.1481 17.5692 9.58897 17.5906 9.04545 17.4944C9.28501 18.1862 9.74229 18.7902 10.3546 19.2234C10.9669 19.6566 11.7042 19.898 12.4655 19.9143C11.1639 20.9171 9.54626 21.4691 7.87545 21.4805C7.58251 21.4724 7.29025 21.4489 7 21.4101C8.69115 22.4414 10.6566 22.9851 12.6618 22.9763" fill="white"/>
<rect x="0.5" y="0.5" width="31" height="31" rx="15.5" stroke="white"/>
</svg>
